<?xml version="1.0" encoding="UTF-8"?>
<!DOCTYPE svg PUBLIC "-//W3C//DTD SVG 1.1//EN" "http://www.w3.org/Graphics/SVG/1.1/DTD/svg11.dtd">
<svg version="1.1" xmlns="http://www.w3.org/2000/svg" xmlns:xlink="http://www.w3.org/1999/xlink" x="0px" y="0px" width="70.833" height="100" viewBox="0, 0, 70.833, 100">
  <g id="Layer 1">
    <g>
      <path d="M17.263,74.413 C17.263,77.783 14.553,80.516 11.211,80.516 C7.869,80.516 5.16,77.783 5.16,74.413 C5.16,71.042 7.869,68.309 11.211,68.309 C14.553,68.309 17.263,71.042 17.263,74.413 z" fill-opacity="0" stroke="#FFFFFF" stroke-width="1"/>
      <path d="M11.211,82.551 C5.64,82.551 1.125,87.103 1.125,92.722 L1.125,96.791 L21.297,96.791 L21.297,92.722 C21.297,87.103 16.782,82.551 11.211,82.551 z" fill-opacity="0" stroke="#FFFFFF" stroke-width="1"/>
      <path d="M41.469,74.413 C41.469,77.783 38.76,80.516 35.417,80.516 C32.075,80.516 29.366,77.783 29.366,74.413 C29.366,71.042 32.075,68.309 35.417,68.309 C38.76,68.309 41.469,71.042 41.469,74.413 z" fill-opacity="0" stroke="#FFFFFF" stroke-width="1"/>
      <path d="M35.417,82.551 C29.846,82.551 25.331,87.103 25.331,92.722 L25.331,96.791 L45.503,96.791 L45.503,92.722 C45.503,87.103 40.988,82.551 35.417,82.551 z" fill-opacity="0" stroke="#FFFFFF" stroke-width="1"/>
      <path d="M65.675,74.413 C65.675,77.783 62.966,80.516 59.624,80.516 C56.282,80.516 53.572,77.783 53.572,74.413 C53.572,71.042 56.282,68.309 59.624,68.309 C62.966,68.309 65.675,71.042 65.675,74.413 z" fill-opacity="0" stroke="#FFFFFF" stroke-width="1"/>
      <path d="M59.624,82.551 C54.052,82.551 49.537,87.103 49.537,92.722 L49.537,96.791 L69.708,96.791 L69.708,92.722 C69.709,87.103 65.194,82.551 59.624,82.551 z" fill-opacity="0" stroke="#FFFFFF" stroke-width="1"/>
      <path d="M47.521,50 C47.521,48.876 46.616,47.965 45.503,47.965 L39.451,47.965 C38.583,47.965 37.814,48.526 37.538,49.357 L35.417,55.773 L33.297,49.357 C33.015,48.504 32.228,47.974 31.384,47.975 L31.384,47.965 L25.331,47.965 C24.218,47.965 23.314,48.876 23.314,50 C23.314,53.255 20.547,55.931 17.685,57.772 C18.551,55.508 19.281,52.773 19.281,50 C19.281,48.876 18.377,47.965 17.264,47.965 L11.212,47.965 C10.1,47.965 9.195,47.054 9.195,45.931 L9.195,5.243 C9.195,4.12 10.101,3.209 11.212,3.209 L59.625,3.209 C60.736,3.209 61.642,4.12 61.642,5.243 L61.642,45.931 C61.642,47.054 60.736,47.965 59.625,47.965 L53.573,47.965 C52.46,47.965 51.555,48.876 51.555,50 C51.555,52.765 52.283,55.49 53.144,57.752 C50.378,55.996 47.521,53.367 47.521,50 z" fill-opacity="0" stroke="#FFFFFF" stroke-width="1"/>
      <path d="M35.417,15.415 C30.962,15.415 27.349,19.058 27.349,23.552 C27.349,26.556 28.907,28.305 30.293,30.734 C30.809,31.64 31.384,33.724 31.384,34.741 C31.384,35.303 31.835,35.759 32.393,35.759 L38.444,35.759 C39.001,35.759 39.452,35.303 39.452,34.741 C39.452,33.724 40.028,31.639 40.544,30.734 C41.93,28.305 43.488,26.556 43.488,23.552 C43.486,19.058 39.872,15.415 35.417,15.415 z" fill-opacity="0" stroke="#FFFFFF" stroke-width="1"/>
      <path d="M38.443,37.793 L32.392,37.793 C31.835,37.793 31.383,38.248 31.383,38.811 C31.383,39.373 31.834,39.828 32.392,39.828 L38.443,39.828 C39,39.828 39.451,39.373 39.451,38.811 C39.451,38.248 39,37.793 38.443,37.793 z" fill-opacity="0" stroke="#FFFFFF" stroke-width="1"/>
      <path d="M36.93,41.862 L33.904,41.862 C33.347,41.862 32.895,42.318 32.895,42.88 C32.895,43.441 33.346,43.897 33.904,43.897 L36.93,43.897 C37.487,43.897 37.938,43.441 37.938,42.88 C37.938,42.318 37.487,41.862 36.93,41.862 z" fill-opacity="0" stroke="#FFFFFF" stroke-width="1"/>
      <path d="M35.417,13.38 C35.974,13.38 36.426,12.924 36.426,12.362 L36.426,8.294 C36.426,7.733 35.975,7.277 35.417,7.277 C34.86,7.277 34.409,7.733 34.409,8.294 L34.409,12.363 C34.409,12.925 34.86,13.38 35.417,13.38 z" fill-opacity="0" stroke="#FFFFFF" stroke-width="1"/>
      <path d="M24.322,22.535 L20.288,22.535 C19.731,22.535 19.279,22.99 19.279,23.552 C19.279,24.115 19.73,24.57 20.288,24.57 L24.322,24.57 C24.879,24.57 25.331,24.114 25.331,23.552 C25.331,22.991 24.879,22.535 24.322,22.535 z" fill-opacity="0" stroke="#FFFFFF" stroke-width="1"/>
      <path d="M27.888,14.521 L25.036,11.644 C24.642,11.246 24.004,11.246 23.61,11.644 C23.216,12.041 23.216,12.685 23.61,13.082 L26.462,15.959 C26.66,16.158 26.918,16.257 27.176,16.257 C27.433,16.257 27.692,16.157 27.888,15.959 C28.281,15.562 28.281,14.918 27.888,14.521 z" fill-opacity="0" stroke="#FFFFFF" stroke-width="1"/>
      <path d="M47.225,11.644 C46.831,11.246 46.193,11.246 45.798,11.644 L42.946,14.521 C42.552,14.918 42.552,15.562 42.946,15.959 C43.143,16.158 43.402,16.257 43.658,16.257 C43.917,16.257 44.174,16.157 44.372,15.959 L47.224,13.082 C47.618,12.685 47.618,12.041 47.225,11.644 z" fill-opacity="0" stroke="#FFFFFF" stroke-width="1"/>
      <path d="M50.546,22.535 L46.513,22.535 C45.955,22.535 45.503,22.99 45.503,23.552 C45.503,24.115 45.955,24.57 46.513,24.57 L50.546,24.57 C51.103,24.57 51.554,24.115 51.554,23.552 C51.554,22.99 51.103,22.535 50.546,22.535 z" fill-opacity="0" stroke="#FFFFFF" stroke-width="1"/>
    </g>
  </g>
  <defs/>
</svg>
