<?xml version="1.0" encoding="UTF-8"?>
<!DOCTYPE svg PUBLIC "-//W3C//DTD SVG 1.1//EN" "http://www.w3.org/Graphics/SVG/1.1/DTD/svg11.dtd">
<svg version="1.1" xmlns="http://www.w3.org/2000/svg" xmlns:xlink="http://www.w3.org/1999/xlink" x="0px" y="0px" width="100" height="100" viewBox="0, 0, 100, 100">
  <g id="Layer 1">
    <g>
      <path d="M89.082,64.445 L89.082,69.156 L91.86,69.156 L91.86,64.445 C91.86,58.792 87.321,54.196 81.742,54.196 L51.176,54.196 L51.176,47.974 C60.448,47.231 67.747,39.391 67.747,29.814 C67.747,19.74 59.685,11.58 49.74,11.58 C39.798,11.58 31.735,19.741 31.735,29.814 C31.735,39.422 39.084,47.279 48.396,47.978 L48.396,54.195 L17.825,54.195 C12.247,54.195 7.704,58.791 7.704,64.441 L7.704,69.153 L10.483,69.153 L10.483,64.441 C10.483,60.339 13.774,57.003 17.825,57.003 L48.396,57.003 L48.396,69.149 L51.176,69.149 L51.176,57.007 L81.742,57.007 C85.787,57.007 89.082,60.343 89.082,64.445 z M49.744,16.185 C52.732,16.185 55.162,18.642 55.162,21.674 C55.162,24.705 52.732,27.164 49.744,27.164 C46.748,27.164 44.321,24.706 44.321,21.674 C44.321,18.641 46.748,16.185 49.744,16.185 z" fill-opacity="0" stroke="#FFFFFF" stroke-width="1"/>
      <path d="M91.86,69.156 C91.771,69.156 91.922,69.156 91.86,69.156 z" fill-opacity="0" stroke="#FFFFFF" stroke-width="1"/>
      <path d="M93.035,86.667 L87.988,86.667 C84.606,86.667 81.869,89.44 81.869,92.864 L81.869,98.5 L85.517,98.5 L85.719,98.5 L86.147,98.5 L94.883,98.5 L95.094,98.5 L95.514,98.5 L99.156,98.5 L99.156,92.864 C99.156,89.44 96.42,86.667 93.035,86.667 z" fill-opacity="0" stroke="#FFFFFF" stroke-width="1"/>
      <path d="M49.783,80.306 z" fill-opacity="0" stroke="#FFFFFF" stroke-width="1"/>
      <path d="M9.05,80.305 z" fill-opacity="0" stroke="#FFFFFF" stroke-width="1"/>
      <path d="M52.305,28.917 L47.257,28.917 C43.875,28.917 41.137,31.69 41.137,35.114 L41.137,40.75 L44.786,40.75 L44.968,40.75 L45.415,40.75 L54.152,40.75 L54.405,40.75 L54.782,40.75 L58.427,40.75 L58.427,35.114 C58.426,31.69 55.687,28.917 52.305,28.917 z" fill-opacity="0" stroke="#FFFFFF" stroke-width="1"/>
      <path d="M90.515,74.156 C93.503,74.156 95.933,76.613 95.933,79.645 C95.933,82.676 93.503,85.135 90.515,85.135 C87.519,85.135 85.092,82.677 85.092,79.645 C85.092,76.612 87.519,74.156 90.515,74.156 z" fill-opacity="0" stroke="#FFFFFF" stroke-width="1"/>
      <path d="M52.304,86.667 L47.257,86.667 C43.876,86.667 41.138,89.44 41.138,92.864 L41.138,98.5 L44.786,98.5 L44.988,98.5 L45.416,98.5 L54.152,98.5 L54.363,98.5 L54.783,98.5 L58.425,98.5 L58.425,92.864 C58.425,89.44 55.689,86.667 52.304,86.667 z" fill-opacity="0" stroke="#FFFFFF" stroke-width="1"/>
      <path d="M49.784,74.156 C52.772,74.156 55.202,76.613 55.202,79.645 C55.202,82.676 52.772,85.135 49.784,85.135 C46.788,85.135 44.361,82.677 44.361,79.645 C44.361,76.612 46.788,74.156 49.784,74.156 z" fill-opacity="0" stroke="#FFFFFF" stroke-width="1"/>
      <path d="M12.009,86.667 L6.962,86.667 C3.581,86.667 0.844,89.44 0.844,92.864 L0.844,98.5 L4.492,98.5 L4.693,98.5 L5.122,98.5 L13.858,98.5 L14.068,98.5 L14.489,98.5 L18.131,98.5 L18.131,92.864 C18.131,89.44 15.395,86.667 12.009,86.667 z" fill-opacity="0" stroke="#FFFFFF" stroke-width="1"/>
      <path d="M9.489,74.156 C12.477,74.156 14.908,76.613 14.908,79.645 C14.908,82.676 12.477,85.135 9.489,85.135 C6.493,85.135 4.067,82.677 4.067,79.645 C4.067,76.612 6.493,74.156 9.489,74.156 z" fill-opacity="0" stroke="#FFFFFF" stroke-width="1"/>
    </g>
  </g>
  <defs/>
</svg>
