<?xml version="1.0" encoding="UTF-8"?>
<!DOCTYPE svg PUBLIC "-//W3C//DTD SVG 1.1//EN" "http://www.w3.org/Graphics/SVG/1.1/DTD/svg11.dtd">
<svg version="1.1" xmlns="http://www.w3.org/2000/svg" xmlns:xlink="http://www.w3.org/1999/xlink" x="0px" y="0px" width="100" height="100" viewBox="0, 0, 100, 100">
  <g id="Layer 1">
    <g>
      <path d="M28.793,51.009 C18.521,51.009 10.165,42.842 10.165,32.805 L10.165,31.292 C10.165,21.256 18.521,13.09 28.793,13.09 L32.978,13.09 L32.978,11.074 L28.793,11.074 C17.384,11.074 8.101,20.144 8.101,31.293 L8.101,32.806 C8.101,43.955 17.383,53.026 28.793,53.026 L35.064,53.026 L37.137,51.01 L28.793,51.01 z" fill-opacity="0" stroke="#FFFFFF" stroke-width="1"/>
      <path d="M30.83,90.942 L28.793,90.942 C18.521,90.942 10.165,82.777 10.165,72.74 C10.165,72.183 9.703,71.732 9.133,71.732 C8.563,71.732 8.101,72.183 8.101,72.74 C8.101,83.888 17.383,92.959 28.793,92.959 L30.83,92.959 C30.773,92.631 30.738,92.296 30.738,91.951 C30.738,91.606 30.773,91.271 30.83,90.942 z" fill-opacity="0" stroke="#FFFFFF" stroke-width="1"/>
      <path d="M71.207,51.015 L64.131,51.015 L62.091,53.032 L71.207,53.032 C81.48,53.032 89.836,61.197 89.836,71.235 L89.836,72.74 C89.836,82.778 81.48,90.943 71.207,90.943 L68.654,90.943 C68.71,91.272 68.746,91.606 68.746,91.952 C68.746,92.296 68.71,92.632 68.654,92.96 L71.207,92.96 C82.616,92.96 91.899,83.89 91.899,72.74 L91.899,71.235 C91.898,60.086 82.616,51.015 71.207,51.015 z" fill-opacity="0" stroke="#FFFFFF" stroke-width="1"/>
      <path d="M58.852,64.853 C58.852,64.853 56.628,67.011 55.762,67.854 C54.896,68.691 55.632,69.42 55.632,69.42 C55.632,69.42 56.124,69.898 56.86,70.626 C57.6,71.353 60.804,70.64 60.804,70.64 L62.772,72.573 C62.772,72.573 72.027,81.676 72.823,82.456 C73.629,83.245 76.029,83.19 76.77,82.47 C77.514,81.752 78.753,80.548 78.753,80.548 C78.753,80.548 79.991,79.352 80.731,78.628 C81.469,77.906 81.541,75.559 80.743,74.774 C79.944,73.986 70.686,64.889 70.686,64.889 L68.723,62.955 C68.723,62.955 69.472,59.826 68.736,59.103 C68,58.372 67.504,57.891 67.504,57.891 C67.504,57.891 66.77,57.166 65.901,58.003 C65.038,58.846 62.812,61.011 62.812,61.011 L58.404,56.675 L54.479,60.551 L58.852,64.853 z" fill-opacity="0" stroke="#FFFFFF" stroke-width="1"/>
      <path d="M35.154,33.81 L32.213,28.988 L28.274,25.12 L20.648,21.005 L19.41,22.2 L18.172,23.405 L22.34,30.885 L26.275,34.753 L31.196,37.654 L40.977,47.274 L44.932,43.426 z" fill-opacity="0" stroke="#FFFFFF" stroke-width="1"/>
      <path d="M71.718,43.518 C71.852,43.388 71.959,43.233 72.039,43.064 L81.228,23.271 C81.505,22.675 81.374,21.981 80.906,21.518 C80.904,21.516 80.904,21.516 80.904,21.516 C80.433,21.057 79.722,20.927 79.115,21.192 C79.115,21.192 58.113,30.572 58.017,30.698 L44.932,43.426 L40.977,47.274 L37.137,51.009 L35.064,53.025 L18.583,69.056 C17.958,69.663 17.955,70.655 18.576,71.267 L22.525,75.148 C22.53,75.152 22.531,75.159 22.537,75.164 C22.541,75.168 22.545,75.168 22.552,75.176 L26.132,78.691 C26.136,78.695 26.139,78.702 26.144,78.707 L26.146,78.71 C26.151,78.715 26.158,78.716 26.161,78.718 L30.004,82.492 C30.004,82.492 30.004,82.492 30.006,82.495 C30.013,82.502 30.022,82.51 30.029,82.517 C30.655,83.129 31.668,83.133 32.296,82.519 C32.375,82.442 32.44,82.36 32.501,82.268 L54.48,60.553 L58.405,56.677 L62.093,53.033 L64.133,51.016 L71.718,43.518 z M68.497,29.269 C68.678,30.389 69.133,31.368 69.938,32.155 C70.818,33.015 71.911,33.494 72.835,33.767 L69.413,41.141 L60.891,32.595 L68.497,29.269 z M21.974,70.169 L38.537,54.061 L51.311,41.639 L57.806,35.322 C57.972,35.565 58.164,35.807 58.404,36.043 C58.731,36.361 59.075,36.597 59.417,36.786 L52.89,43.184 L40.168,55.657 L23.67,71.831 L21.974,70.169 z M25.928,74.052 L42.433,57.87 L55.156,45.397 L61.626,39.053 C61.79,39.3 61.981,39.542 62.221,39.776 C62.226,39.781 62.231,39.786 62.233,39.788 C62.481,40.028 62.732,40.216 62.988,40.383 L56.516,46.725 L43.792,59.197 L27.28,75.381 L25.928,74.052 z M31.134,79.167 L29.539,77.599 L46.057,61.41 L58.78,48.939 L65.244,42.603 C65.415,42.852 65.602,43.103 65.846,43.342 C65.848,43.344 65.854,43.349 65.858,43.354 C66.135,43.626 66.423,43.837 66.713,44.015 L60.263,50.388 L47.59,62.908 L31.134,79.167 z" fill-opacity="0" stroke="#FFFFFF" stroke-width="1"/>
      <path d="M68.654,90.942 C68.161,88.082 65.622,85.901 62.556,85.901 L59.199,85.901 L59.199,98 L62.556,98 C65.622,98 68.161,95.82 68.654,92.959 C68.71,92.631 68.746,92.296 68.746,91.951 C68.746,91.606 68.71,91.271 68.654,90.942 z" fill-opacity="0" stroke="#FFFFFF" stroke-width="1"/>
      <path d="M51.985,85.901 L56.103,85.901 L56.103,98 L51.985,98 z" fill-opacity="0" stroke="#FFFFFF" stroke-width="1"/>
      <path d="M45.664,85.901 L46.762,85.901 L46.762,98 L45.664,98 z" fill-opacity="0" stroke="#FFFFFF" stroke-width="1"/>
      <path d="M43.601,85.901 L36.928,85.901 C33.862,85.901 31.322,88.082 30.83,90.942 C30.773,91.271 30.738,91.605 30.738,91.951 C30.738,92.295 30.774,92.631 30.83,92.959 C31.322,95.819 33.861,98 36.928,98 L43.601,98 L43.601,85.901 z" fill-opacity="0" stroke="#FFFFFF" stroke-width="1"/>
      <path d="M48.825,85.901 L49.923,85.901 L49.923,98 L48.825,98 z" fill-opacity="0" stroke="#FFFFFF" stroke-width="1"/>
      <path d="M42.291,2.05 C37.417,2.523 33.541,6.31 33.057,11.073 L42.291,11.073 L42.291,2.05 z" fill-opacity="0" stroke="#FFFFFF" stroke-width="1"/>
      <path d="M33.056,13.09 C33.541,17.852 37.416,21.641 42.29,22.113 L42.29,13.09 L33.056,13.09 z" fill-opacity="0" stroke="#FFFFFF" stroke-width="1"/>
      <path d="M44.354,22.163 L56.162,22.163 C61.859,22.163 66.478,17.649 66.478,12.081 C66.478,6.514 61.859,2 56.162,2 L44.354,2 L44.354,22.163 z" fill-opacity="0" stroke="#FFFFFF" stroke-width="1"/>
    </g>
  </g>
  <defs/>
</svg>
