<?xml version="1.0" encoding="UTF-8"?>
<!DOCTYPE svg PUBLIC "-//W3C//DTD SVG 1.1//EN" "http://www.w3.org/Graphics/SVG/1.1/DTD/svg11.dtd">
<svg version="1.1" xmlns="http://www.w3.org/2000/svg" xmlns:xlink="http://www.w3.org/1999/xlink" x="0px" y="0px" width="300" height="300" viewBox="0, 0, 300, 300">
  <g id="Layer 1">
    <path d="M0,0 L300,0 L300,300 L0,300 z" fill="#CCCCCC"/>
    <g>
      <g>
        <path d="M205.446,52.365 C232.876,75.227 223.334,141.81 197.951,167.193 C182.425,182.719 161.629,200.576 137.316,197.183 C116.693,194.305 117.386,168.632 124.75,153.829 C130.444,142.387 121.162,144.161 121.374,132.055 C121.731,111.592 149.382,92.516 166.624,86.151 C175.302,82.947 185.031,82.212 181.272,85.972 C177.917,89.327 163.151,95.372 158.032,99.139 C147.491,106.895 118.095,125.104 133.806,140.816 C141.532,133.813 163.598,128.966 165.591,137.278 C169.178,152.246 136.775,153.258 136.775,153.258 C129.076,157.96 124.63,178.222 131.993,184.831 C143.42,195.088 160.713,184.754 170.928,177.931 C203.586,156.121 214.574,128.42 211.972,90.895 C209.287,52.143 177.647,45.953 144.703,60.34 C93.564,82.673 55.395,162.208 84.191,214.22 C103.871,249.765 142.027,247.476 174.29,231.145 C191.816,222.274 242.601,184.652 241.863,183.031 C244.605,189.048 217.439,211.172 213.9,214.233 C196.058,229.673 175.19,243.494 152.037,249.234 C114.853,258.452 78.374,240.541 68.415,200.536 C59.573,165.014 73.731,119.179 94.856,90.698 C109.189,71.376 129.6,53.675 153.447,47.844 C168.507,44.161 192.468,41.548 205.446,52.365 z M154.161,138.358 C150.429,138.809 149.695,138.743 146.007,139.835 C143.894,140.462 140.944,141.545 139.081,142.861 C138.4,143.342 137.816,143.965 137.313,144.63 C136.803,145.305 137.107,146.361 137.665,146.874 C137.941,147.129 138.293,147.302 138.647,147.434 C140.974,148.298 144.561,147.681 146.784,147.236 C149.483,146.697 152.711,145.711 155.229,144.569 C156.069,144.188 160.559,142.201 160.069,140.268 C160.031,140.117 159.984,139.96 159.889,139.838 C159.691,139.581 159.487,139.304 159.202,139.151 C158.662,138.857 158.046,138.733 157.466,138.524 z" fill="#FFFFFF"/>
        <path d="M205.446,52.365 C232.876,75.227 223.334,141.81 197.951,167.193 C182.425,182.719 161.629,200.576 137.316,197.183 C116.693,194.305 117.386,168.632 124.75,153.829 C130.444,142.387 121.162,144.161 121.374,132.055 C121.731,111.592 149.382,92.516 166.624,86.151 C175.302,82.947 185.031,82.212 181.272,85.972 C177.917,89.327 163.151,95.372 158.032,99.139 C147.491,106.895 118.095,125.104 133.806,140.816 C141.532,133.813 163.598,128.966 165.591,137.278 C169.178,152.246 136.775,153.258 136.775,153.258 C129.076,157.96 124.63,178.222 131.993,184.831 C143.42,195.088 160.713,184.754 170.928,177.931 C203.586,156.121 214.574,128.42 211.972,90.895 C209.287,52.143 177.647,45.953 144.703,60.34 C93.564,82.673 55.395,162.208 84.191,214.22 C103.871,249.765 142.027,247.476 174.29,231.145 C191.816,222.274 242.601,184.652 241.863,183.031 C244.605,189.048 217.439,211.172 213.9,214.233 C196.058,229.673 175.19,243.494 152.037,249.234 C114.853,258.452 78.374,240.541 68.415,200.536 C59.573,165.014 73.731,119.179 94.856,90.698 C109.189,71.376 129.6,53.675 153.447,47.844 C168.507,44.161 192.468,41.548 205.446,52.365 z M154.161,138.358 C150.429,138.809 149.695,138.743 146.007,139.835 C143.894,140.462 140.944,141.545 139.081,142.861 C138.4,143.342 137.816,143.965 137.313,144.63 C136.803,145.305 137.107,146.361 137.665,146.874 C137.941,147.129 138.293,147.302 138.647,147.434 C140.974,148.298 144.561,147.681 146.784,147.236 C149.483,146.697 152.711,145.711 155.229,144.569 C156.069,144.188 160.559,142.201 160.069,140.268 C160.031,140.117 159.984,139.96 159.889,139.838 C159.691,139.581 159.487,139.304 159.202,139.151 C158.662,138.857 158.046,138.733 157.466,138.524 z" fill-opacity="0" stroke="#FFFFFF" stroke-width="1"/>
      </g>
      <g>
        <path d="M205.446,52.365 C232.876,75.227 223.334,141.81 197.951,167.193 C182.425,182.719 161.629,200.576 137.316,197.183 C116.693,194.305 117.386,168.632 124.75,153.829 C130.444,142.387 121.162,144.161 121.374,132.055 C121.731,111.592 149.382,92.516 166.624,86.151 C175.302,82.947 185.031,82.212 181.272,85.972 C177.917,89.327 163.151,95.372 158.032,99.139 C147.491,106.895 118.095,125.104 133.806,140.816 C141.532,133.813 163.598,128.966 165.591,137.278 C169.178,152.246 136.775,153.258 136.775,153.258 C129.076,157.96 124.63,178.222 131.993,184.831 C143.42,195.088 160.713,184.754 170.928,177.931 C203.586,156.121 214.574,128.42 211.972,90.895 C209.287,52.143 177.647,45.953 144.703,60.34 C93.564,82.673 55.395,162.208 84.191,214.22 C103.871,249.765 142.027,247.476 174.29,231.145 C191.816,222.274 242.601,184.652 241.863,183.031 C244.605,189.048 217.439,211.172 213.9,214.233 C196.058,229.673 175.19,243.494 152.037,249.234 C114.853,258.452 78.374,240.541 68.415,200.536 C59.573,165.014 73.731,119.179 94.856,90.698 C109.189,71.376 129.6,53.675 153.447,47.844 C168.507,44.161 192.468,41.548 205.446,52.365 z M154.161,138.358 C150.429,138.809 149.695,138.743 146.007,139.835 C143.894,140.462 140.944,141.545 139.081,142.861 C138.4,143.342 137.816,143.965 137.313,144.63 C136.803,145.305 137.107,146.361 137.665,146.874 C137.941,147.129 138.293,147.302 138.647,147.434 C140.974,148.298 144.561,147.681 146.784,147.236 C149.483,146.697 152.711,145.711 155.229,144.569 C156.069,144.188 160.559,142.201 160.069,140.268 C160.031,140.117 159.984,139.96 159.889,139.838 C159.691,139.581 159.487,139.304 159.202,139.151 C158.662,138.857 158.046,138.733 157.466,138.524 z" fill="#FFFFFF"/>
        <path d="M205.446,52.365 C232.876,75.227 223.334,141.81 197.951,167.193 C182.425,182.719 161.629,200.576 137.316,197.183 C116.693,194.305 117.386,168.632 124.75,153.829 C130.444,142.387 121.162,144.161 121.374,132.055 C121.731,111.592 149.382,92.516 166.624,86.151 C175.302,82.947 185.031,82.212 181.272,85.972 C177.917,89.327 163.151,95.372 158.032,99.139 C147.491,106.895 118.095,125.104 133.806,140.816 C141.532,133.813 163.598,128.966 165.591,137.278 C169.178,152.246 136.775,153.258 136.775,153.258 C129.076,157.96 124.63,178.222 131.993,184.831 C143.42,195.088 160.713,184.754 170.928,177.931 C203.586,156.121 214.574,128.42 211.972,90.895 C209.287,52.143 177.647,45.953 144.703,60.34 C93.564,82.673 55.395,162.208 84.191,214.22 C103.871,249.765 142.027,247.476 174.29,231.145 C191.816,222.274 242.601,184.652 241.863,183.031 C244.605,189.048 217.439,211.172 213.9,214.233 C196.058,229.673 175.19,243.494 152.037,249.234 C114.853,258.452 78.374,240.541 68.415,200.536 C59.573,165.014 73.731,119.179 94.856,90.698 C109.189,71.376 129.6,53.675 153.447,47.844 C168.507,44.161 192.468,41.548 205.446,52.365 z M154.161,138.358 C150.429,138.809 149.695,138.743 146.007,139.835 C143.894,140.462 140.944,141.545 139.081,142.861 C138.4,143.342 137.816,143.965 137.313,144.63 C136.803,145.305 137.107,146.361 137.665,146.874 C137.941,147.129 138.293,147.302 138.647,147.434 C140.974,148.298 144.561,147.681 146.784,147.236 C149.483,146.697 152.711,145.711 155.229,144.569 C156.069,144.188 160.559,142.201 160.069,140.268 C160.031,140.117 159.984,139.96 159.889,139.838 C159.691,139.581 159.487,139.304 159.202,139.151 C158.662,138.857 158.046,138.733 157.466,138.524 z" fill-opacity="0" stroke="#FFFFFF" stroke-width="2"/>
      </g>
    </g>
  </g>
  <defs/>
</svg>
