<?xml version="1.0" encoding="UTF-8"?>
<!DOCTYPE svg PUBLIC "-//W3C//DTD SVG 1.1//EN" "http://www.w3.org/Graphics/SVG/1.1/DTD/svg11.dtd">
<svg version="1.1" xmlns="http://www.w3.org/2000/svg" xmlns:xlink="http://www.w3.org/1999/xlink" x="0px" y="0px" width="170.8" height="65.45" viewBox="0, 0, 488, 187">
  <g id="Layer 1">
    <path d="M127,8.205 C151.477,28.606 142.962,88.021 120.312,110.672 C106.457,124.526 87.9,140.461 66.204,137.433 C47.801,134.865 48.419,111.956 54.991,98.746 C60.072,88.536 51.789,90.119 51.978,79.316 C52.297,61.056 76.971,44.034 92.357,38.354 C100.101,35.495 108.782,34.839 105.428,38.194 C102.434,41.188 89.258,46.582 84.69,49.944 C75.284,56.865 49.052,73.114 63.072,87.134 C69.966,80.885 89.657,76.56 91.435,83.977 C94.636,97.334 65.721,98.237 65.721,98.237 C58.851,102.433 54.884,120.513 61.454,126.411 C71.651,135.564 87.082,126.342 96.198,120.254 C125.34,100.792 135.145,76.073 132.823,42.587 C130.427,8.007 102.193,2.483 72.796,15.321 C27.162,35.25 -6.898,106.223 18.798,152.636 C36.359,184.355 70.408,182.312 99.198,167.739 C114.837,159.823 160.155,126.251 159.496,124.805 C161.943,130.174 137.702,149.916 134.544,152.648 C118.622,166.426 100.001,178.759 79.34,183.881 C46.159,192.107 13.607,176.124 4.72,140.425 C-3.17,108.727 9.464,67.826 28.315,42.411 C41.105,25.169 59.319,9.374 80.598,4.171 C94.037,0.884 115.419,-1.448 127,8.205 z M81.236,84.941 C77.905,85.343 77.25,85.284 73.959,86.259 C72.074,86.818 69.441,87.785 67.779,88.959 C67.171,89.388 66.65,89.944 66.201,90.538 C65.746,91.14 66.017,92.082 66.515,92.54 C66.762,92.768 67.076,92.922 67.392,93.04 C69.468,93.811 72.669,93.26 74.653,92.863 C77.061,92.382 79.942,91.502 82.189,90.483 C82.938,90.143 86.945,88.37 86.508,86.645 C86.474,86.51 86.432,86.37 86.347,86.261 C86.17,86.032 85.988,85.785 85.734,85.648 C85.252,85.386 84.702,85.275 84.185,85.089 z" fill="#315180"/>
    <path d="M177.233,87.153 L177.233,105 L171.073,105 L171.073,87.153 L161.395,87.153 L161.395,82.189 L186.928,82.189 L186.928,87.153 z" fill="#315180"/>
    <path d="M216.429,103.871 Q213.623,104.801 210.826,105.208 Q208.029,105.614 205.107,105.614 Q201.371,105.614 198.458,104.809 Q195.544,104.004 193.552,102.477 Q191.56,100.949 190.514,98.741 Q189.468,96.533 189.468,93.744 Q189.468,91.154 190.522,88.938 Q191.576,86.722 193.51,85.086 Q195.445,83.451 198.184,82.53 Q200.923,81.608 204.293,81.608 Q207.398,81.608 209.979,82.447 Q212.561,83.285 214.412,84.929 Q216.263,86.572 217.284,88.979 Q218.305,91.387 218.305,94.524 L218.305,96.052 L195.826,96.052 Q196.125,97.131 196.814,98.027 Q197.503,98.924 198.682,99.555 Q199.861,100.186 201.579,100.534 Q203.297,100.883 205.688,100.883 Q207.381,100.883 209.008,100.675 Q210.635,100.468 212.046,100.127 Q213.457,99.787 214.594,99.372 Q215.732,98.957 216.429,98.542 z M212.179,91.536 Q212.096,90.689 211.673,89.785 Q211.249,88.88 210.336,88.149 Q209.423,87.419 207.945,86.946 Q206.468,86.473 204.26,86.473 Q202.185,86.473 200.674,86.987 Q199.163,87.502 198.142,88.266 Q197.121,89.029 196.557,89.909 Q195.992,90.789 195.826,91.536 z" fill="#315180"/>
    <path d="M249.034,103.439 Q247.839,103.938 246.627,104.336 Q245.415,104.734 244.12,105.025 Q242.825,105.315 241.389,105.465 Q239.953,105.614 238.31,105.614 Q234.823,105.614 231.893,104.867 Q228.963,104.12 226.846,102.618 Q224.73,101.115 223.551,98.866 Q222.372,96.616 222.372,93.611 Q222.372,90.606 223.551,88.357 Q224.73,86.107 226.846,84.605 Q228.963,83.103 231.893,82.355 Q234.823,81.608 238.31,81.608 Q239.953,81.608 241.389,81.758 Q242.825,81.907 244.12,82.198 Q245.415,82.488 246.627,82.887 Q247.839,83.285 249.034,83.783 L249.034,89.328 Q248.088,88.813 247.042,88.307 Q245.996,87.801 244.735,87.394 Q243.473,86.987 241.962,86.73 Q240.451,86.473 238.559,86.473 Q235.654,86.473 233.736,87.07 Q231.819,87.668 230.673,88.664 Q229.528,89.66 229.063,90.947 Q228.598,92.233 228.598,93.611 Q228.598,94.524 228.797,95.413 Q228.996,96.301 229.461,97.089 Q229.926,97.878 230.673,98.542 Q231.42,99.206 232.532,99.688 Q233.645,100.169 235.131,100.443 Q236.616,100.717 238.559,100.717 Q240.451,100.717 241.962,100.476 Q243.473,100.235 244.735,99.837 Q245.996,99.438 247.042,98.932 Q248.088,98.426 249.034,97.895 z" fill="#315180"/>
    <path d="M276.61,105 L276.61,95.487 L260.938,95.487 L260.938,105 L254.779,105 L254.779,82.189 L260.938,82.189 L260.938,90.49 L276.61,90.49 L276.61,82.189 L282.769,82.189 L282.769,105 z" fill="#315180"/>
    <path d="M311.639,105 L311.639,92.217 Q311.639,90.938 311.423,89.901 Q311.207,88.863 310.618,88.125 Q310.029,87.386 308.974,86.979 Q307.92,86.572 306.26,86.572 Q304.998,86.572 303.612,86.913 Q302.226,87.253 300.864,87.817 Q299.503,88.382 298.266,89.129 Q297.03,89.876 296.067,90.689 L296.067,105 L289.907,105 L289.907,82.189 L296.067,82.189 L296.067,85.311 Q297.229,84.646 298.54,83.991 Q299.852,83.335 301.329,82.804 Q302.807,82.272 304.467,81.94 Q306.127,81.608 307.97,81.608 Q310.278,81.608 312.095,82.165 Q313.913,82.721 315.175,83.742 Q316.437,84.763 317.109,86.215 Q317.781,87.668 317.781,89.461 L317.781,105 z" fill="#315180"/>
    <path d="M354.338,93.611 Q354.338,96.55 353.259,98.799 Q352.18,101.049 350.171,102.56 Q348.162,104.07 345.299,104.842 Q342.435,105.614 338.865,105.614 Q335.296,105.614 332.416,104.842 Q329.535,104.07 327.51,102.56 Q325.485,101.049 324.389,98.799 Q323.293,96.55 323.293,93.611 Q323.293,90.673 324.389,88.423 Q325.485,86.174 327.51,84.663 Q329.535,83.152 332.416,82.38 Q335.296,81.608 338.865,81.608 Q342.435,81.608 345.299,82.38 Q348.162,83.152 350.171,84.663 Q352.18,86.174 353.259,88.423 Q354.338,90.673 354.338,93.611 z M348.113,93.611 Q348.113,92.333 347.706,91.063 Q347.299,89.793 346.261,88.78 Q345.224,87.768 343.431,87.137 Q341.638,86.506 338.865,86.506 Q337.006,86.506 335.595,86.796 Q334.184,87.087 333.155,87.602 Q332.125,88.116 331.428,88.805 Q330.731,89.494 330.316,90.283 Q329.901,91.071 329.726,91.926 Q329.552,92.781 329.552,93.611 Q329.552,94.458 329.726,95.321 Q329.901,96.185 330.316,96.973 Q330.731,97.762 331.428,98.442 Q332.125,99.123 333.155,99.629 Q334.184,100.136 335.595,100.426 Q337.006,100.717 338.865,100.717 Q341.638,100.717 343.431,100.086 Q345.224,99.455 346.261,98.442 Q347.299,97.43 347.706,96.16 Q348.113,94.89 348.113,93.611 z" fill="#315180"/>
    <path d="M366.109,95.238 Q366.109,96.666 366.374,97.571 Q366.64,98.476 367.238,99.007 Q367.835,99.538 368.79,99.737 Q369.744,99.937 371.139,99.937 L382.826,99.937 L382.826,105 L369.877,105 Q367.188,105 365.303,104.56 Q363.419,104.12 362.224,103.199 Q361.029,102.277 360.489,100.866 Q359.949,99.455 359.949,97.513 L359.949,82.189 L366.109,82.189 z" fill="#315180"/>
    <path d="M417.275,93.611 Q417.275,96.55 416.196,98.799 Q415.116,101.049 413.108,102.56 Q411.099,104.07 408.235,104.842 Q405.371,105.614 401.802,105.614 Q398.233,105.614 395.352,104.842 Q392.472,104.07 390.447,102.56 Q388.421,101.049 387.325,98.799 Q386.23,96.55 386.23,93.611 Q386.23,90.673 387.325,88.423 Q388.421,86.174 390.447,84.663 Q392.472,83.152 395.352,82.38 Q398.233,81.608 401.802,81.608 Q405.371,81.608 408.235,82.38 Q411.099,83.152 413.108,84.663 Q415.116,86.174 416.196,88.423 Q417.275,90.673 417.275,93.611 z M411.049,93.611 Q411.049,92.333 410.642,91.063 Q410.236,89.793 409.198,88.78 Q408.16,87.768 406.367,87.137 Q404.574,86.506 401.802,86.506 Q399.943,86.506 398.531,86.796 Q397.12,87.087 396.091,87.602 Q395.062,88.116 394.364,88.805 Q393.667,89.494 393.252,90.283 Q392.837,91.071 392.663,91.926 Q392.488,92.781 392.488,93.611 Q392.488,94.458 392.663,95.321 Q392.837,96.185 393.252,96.973 Q393.667,97.762 394.364,98.442 Q395.062,99.123 396.091,99.629 Q397.12,100.136 398.531,100.426 Q399.943,100.717 401.802,100.717 Q404.574,100.717 406.367,100.086 Q408.16,99.455 409.198,98.442 Q410.236,97.43 410.642,96.16 Q411.049,94.89 411.049,93.611 z" fill="#315180"/>
    <path d="M437.578,81.608 Q440.932,81.608 443.812,82.181 Q446.693,82.754 449.1,83.65 L449.1,89.229 Q448.154,88.697 446.967,88.199 Q445.78,87.701 444.385,87.319 Q442.99,86.938 441.397,86.705 Q439.803,86.473 438.043,86.473 Q435.852,86.473 434.225,86.788 Q432.598,87.104 431.436,87.635 Q430.274,88.166 429.527,88.872 Q428.78,89.577 428.348,90.374 Q427.916,91.171 427.75,92.001 Q427.584,92.831 427.584,93.611 Q427.584,94.292 427.725,95.089 Q427.866,95.886 428.257,96.683 Q428.647,97.479 429.344,98.21 Q430.041,98.94 431.162,99.505 Q432.282,100.069 433.86,100.41 Q435.437,100.75 437.612,100.75 Q438.707,100.75 439.521,100.684 Q440.334,100.617 441.007,100.501 Q441.679,100.385 442.268,100.219 Q442.858,100.053 443.488,99.87 L443.488,97.114 L436.582,97.114 L436.582,92.117 L449.648,92.117 L449.648,103.771 Q448.419,104.187 446.9,104.527 Q445.381,104.867 443.762,105.108 Q442.144,105.349 440.517,105.481 Q438.89,105.614 437.446,105.614 Q435.204,105.614 433.146,105.315 Q431.087,105.017 429.302,104.394 Q427.518,103.771 426.049,102.809 Q424.579,101.846 423.542,100.518 Q422.504,99.189 421.931,97.471 Q421.359,95.753 421.359,93.611 Q421.359,91.486 421.956,89.76 Q422.554,88.033 423.625,86.705 Q424.696,85.377 426.198,84.414 Q427.7,83.451 429.502,82.829 Q431.303,82.206 433.353,81.907 Q435.404,81.608 437.578,81.608 z" fill="#315180"/>
    <path d="M483.365,96.234 Q483.365,98.459 482.27,100.202 Q481.174,101.945 479.157,103.149 Q477.14,104.353 474.276,104.983 Q471.412,105.614 467.86,105.614 Q466.299,105.614 464.581,105.49 Q462.863,105.365 461.227,105.141 Q459.592,104.917 458.164,104.626 Q456.737,104.336 455.757,103.987 L455.757,98.575 Q456.82,99.023 458.123,99.422 Q459.426,99.82 460.953,100.127 Q462.481,100.435 464.232,100.609 Q465.984,100.783 467.943,100.783 Q469.785,100.783 471.188,100.567 Q472.591,100.352 473.62,99.986 Q474.65,99.621 475.33,99.148 Q476.011,98.675 476.426,98.168 Q476.841,97.662 477.015,97.164 Q477.19,96.666 477.19,96.234 L477.19,94.226 Q475.496,95.471 473.155,96.276 Q470.815,97.081 467.826,97.081 Q464.357,97.081 462.041,96.409 Q459.725,95.736 458.33,94.466 Q456.936,93.196 456.346,91.37 Q455.757,89.544 455.757,87.253 L455.757,82.189 L461.949,82.189 L461.949,86.639 Q461.949,87.983 462.306,89.029 Q462.663,90.075 463.435,90.781 Q464.207,91.486 465.436,91.852 Q466.664,92.217 468.407,92.217 Q469.885,92.217 471.205,91.852 Q472.525,91.486 473.637,90.889 Q474.749,90.291 475.646,89.527 Q476.542,88.764 477.19,87.967 L477.19,82.189 L483.365,82.189 z" fill="#315180"/>
    <path d="M189.672,48.871 Q186.866,49.801 184.069,50.208 Q181.271,50.614 178.349,50.614 Q174.614,50.614 171.7,49.809 Q168.787,49.004 166.795,47.477 Q164.803,45.949 163.757,43.741 Q162.711,41.533 162.711,38.744 Q162.711,36.154 163.765,33.938 Q164.819,31.722 166.753,30.086 Q168.687,28.451 171.427,27.53 Q174.166,26.608 177.536,26.608 Q180.64,26.608 183.222,27.447 Q185.803,28.285 187.655,29.929 Q189.506,31.572 190.527,33.979 Q191.548,36.387 191.548,39.524 L191.548,41.052 L169.069,41.052 Q169.368,42.131 170.057,43.027 Q170.746,43.924 171.925,44.555 Q173.103,45.186 174.822,45.534 Q176.54,45.883 178.93,45.883 Q180.624,45.883 182.251,45.675 Q183.878,45.468 185.289,45.127 Q186.7,44.787 187.837,44.372 Q188.974,43.957 189.672,43.542 z M185.422,36.536 Q185.339,35.689 184.915,34.785 Q184.492,33.88 183.579,33.149 Q182.666,32.419 181.188,31.946 Q179.711,31.473 177.503,31.473 Q175.428,31.473 173.917,31.987 Q172.406,32.502 171.385,33.266 Q170.364,34.029 169.8,34.909 Q169.235,35.789 169.069,36.536 z" fill="#315180"/>
    <path d="M203.302,40.238 Q203.302,41.666 203.567,42.571 Q203.833,43.476 204.43,44.007 Q205.028,44.538 205.983,44.737 Q206.937,44.937 208.332,44.937 L220.019,44.937 L220.019,50 L207.07,50 Q204.381,50 202.496,49.56 Q200.612,49.12 199.417,48.199 Q198.221,47.277 197.682,45.866 Q197.142,44.455 197.142,42.513 L197.142,27.189 L203.302,27.189 z" fill="#315180"/>
    <path d="M239.642,26.608 Q242.996,26.608 245.876,27.181 Q248.757,27.754 251.164,28.65 L251.164,34.229 Q250.218,33.697 249.031,33.199 Q247.844,32.701 246.449,32.319 Q245.054,31.937 243.461,31.705 Q241.867,31.473 240.107,31.473 Q237.916,31.473 236.289,31.788 Q234.662,32.104 233.5,32.635 Q232.338,33.166 231.591,33.872 Q230.844,34.577 230.412,35.374 Q229.98,36.171 229.814,37.001 Q229.648,37.831 229.648,38.611 Q229.648,39.292 229.789,40.089 Q229.93,40.886 230.321,41.683 Q230.711,42.479 231.408,43.21 Q232.105,43.94 233.226,44.505 Q234.346,45.069 235.924,45.41 Q237.501,45.75 239.676,45.75 Q240.771,45.75 241.585,45.684 Q242.398,45.617 243.071,45.501 Q243.743,45.385 244.332,45.219 Q244.922,45.053 245.553,44.87 L245.553,42.114 L238.646,42.114 L238.646,37.117 L251.712,37.117 L251.712,48.771 Q250.483,49.187 248.964,49.527 Q247.445,49.867 245.826,50.108 Q244.208,50.349 242.581,50.481 Q240.954,50.614 239.51,50.614 Q237.268,50.614 235.21,50.315 Q233.151,50.017 231.366,49.394 Q229.582,48.771 228.113,47.809 Q226.643,46.846 225.606,45.518 Q224.568,44.189 223.995,42.471 Q223.423,40.753 223.423,38.611 Q223.423,36.486 224.02,34.76 Q224.618,33.033 225.689,31.705 Q226.76,30.377 228.262,29.414 Q229.764,28.451 231.566,27.829 Q233.367,27.206 235.417,26.907 Q237.468,26.608 239.642,26.608 z" fill="#315180"/>
    <path d="M258.336,50 L258.336,27.189 L264.495,27.189 L264.495,50 z" fill="#315180"/>
    <path d="M293.365,50 L293.365,37.217 Q293.365,35.938 293.149,34.901 Q292.933,33.863 292.344,33.125 Q291.755,32.386 290.7,31.979 Q289.646,31.572 287.986,31.572 Q286.724,31.572 285.338,31.913 Q283.952,32.253 282.591,32.817 Q281.229,33.382 279.992,34.129 Q278.756,34.876 277.793,35.689 L277.793,50 L271.634,50 L271.634,27.189 L277.793,27.189 L277.793,30.311 Q278.955,29.646 280.266,28.991 Q281.578,28.335 283.055,27.804 Q284.533,27.272 286.193,26.94 Q287.853,26.608 289.696,26.608 Q292.004,26.608 293.822,27.165 Q295.639,27.721 296.901,28.742 Q298.163,29.763 298.835,31.215 Q299.508,32.668 299.508,34.461 L299.508,50 z" fill="#315180"/>
    <path d="M189.584,160.439 Q188.389,160.938 187.177,161.336 Q185.965,161.734 184.67,162.025 Q183.375,162.315 181.939,162.465 Q180.503,162.614 178.86,162.614 Q175.373,162.614 172.443,161.867 Q169.513,161.12 167.396,159.618 Q165.279,158.115 164.101,155.866 Q162.922,153.616 162.922,150.611 Q162.922,147.606 164.101,145.357 Q165.279,143.107 167.396,141.605 Q169.513,140.103 172.443,139.355 Q175.373,138.608 178.86,138.608 Q180.503,138.608 181.939,138.758 Q183.375,138.907 184.67,139.198 Q185.965,139.488 187.177,139.887 Q188.389,140.285 189.584,140.783 L189.584,146.328 Q188.638,145.813 187.592,145.307 Q186.546,144.801 185.284,144.394 Q184.023,143.987 182.512,143.73 Q181.001,143.473 179.109,143.473 Q176.203,143.473 174.286,144.07 Q172.368,144.668 171.223,145.664 Q170.077,146.66 169.612,147.947 Q169.148,149.233 169.148,150.611 Q169.148,151.524 169.347,152.413 Q169.546,153.301 170.011,154.089 Q170.476,154.878 171.223,155.542 Q171.97,156.206 173.082,156.688 Q174.195,157.169 175.68,157.443 Q177.166,157.717 179.109,157.717 Q181.001,157.717 182.512,157.476 Q184.023,157.235 185.284,156.837 Q186.546,156.438 187.592,155.932 Q188.638,155.426 189.584,154.895 z" fill="#315180"/>
    <path d="M220.762,160.871 Q217.956,161.801 215.159,162.208 Q212.362,162.614 209.44,162.614 Q205.704,162.614 202.791,161.809 Q199.877,161.004 197.885,159.477 Q195.893,157.949 194.847,155.741 Q193.801,153.533 193.801,150.744 Q193.801,148.154 194.855,145.938 Q195.909,143.722 197.843,142.086 Q199.778,140.451 202.517,139.53 Q205.256,138.608 208.626,138.608 Q211.731,138.608 214.312,139.447 Q216.894,140.285 218.745,141.929 Q220.596,143.572 221.617,145.979 Q222.638,148.387 222.638,151.524 L222.638,153.052 L200.159,153.052 Q200.458,154.131 201.147,155.027 Q201.836,155.924 203.015,156.555 Q204.194,157.186 205.912,157.534 Q207.63,157.883 210.021,157.883 Q211.714,157.883 213.341,157.675 Q214.968,157.468 216.379,157.127 Q217.79,156.787 218.927,156.372 Q220.065,155.957 220.762,155.542 z M216.512,148.536 Q216.429,147.689 216.006,146.785 Q215.582,145.88 214.669,145.149 Q213.756,144.419 212.279,143.946 Q210.801,143.473 208.593,143.473 Q206.518,143.473 205.007,143.987 Q203.496,144.502 202.475,145.266 Q201.454,146.029 200.89,146.909 Q200.325,147.789 200.159,148.536 z" fill="#315180"/>
    <path d="M249.964,162 L249.964,149.217 Q249.964,147.938 249.748,146.901 Q249.532,145.863 248.943,145.125 Q248.354,144.386 247.299,143.979 Q246.245,143.572 244.585,143.572 Q243.323,143.572 241.937,143.913 Q240.551,144.253 239.19,144.817 Q237.828,145.382 236.591,146.129 Q235.355,146.876 234.392,147.689 L234.392,162 L228.233,162 L228.233,139.189 L234.392,139.189 L234.392,142.311 Q235.554,141.646 236.865,140.991 Q238.177,140.335 239.654,139.804 Q241.132,139.272 242.792,138.94 Q244.452,138.608 246.295,138.608 Q248.603,138.608 250.421,139.165 Q252.238,139.721 253.5,140.742 Q254.762,141.763 255.434,143.215 Q256.107,144.668 256.107,146.461 L256.107,162 z" fill="#315180"/>
    <path d="M275.929,144.153 L275.929,162 L269.77,162 L269.77,144.153 L260.091,144.153 L260.091,139.189 L285.624,139.189 L285.624,144.153 z" fill="#315180"/>
    <path d="M315.125,160.871 Q312.32,161.801 309.522,162.208 Q306.725,162.614 303.803,162.614 Q300.068,162.614 297.154,161.809 Q294.24,161.004 292.248,159.477 Q290.256,157.949 289.21,155.741 Q288.164,153.533 288.164,150.744 Q288.164,148.154 289.218,145.938 Q290.273,143.722 292.207,142.086 Q294.141,140.451 296.88,139.53 Q299.619,138.608 302.989,138.608 Q306.094,138.608 308.676,139.447 Q311.257,140.285 313.108,141.929 Q314.959,143.572 315.98,145.979 Q317.001,148.387 317.001,151.524 L317.001,153.052 L294.523,153.052 Q294.822,154.131 295.51,155.027 Q296.199,155.924 297.378,156.555 Q298.557,157.186 300.275,157.534 Q301.993,157.883 304.384,157.883 Q306.077,157.883 307.704,157.675 Q309.331,157.468 310.742,157.127 Q312.154,156.787 313.291,156.372 Q314.428,155.957 315.125,155.542 z M310.875,148.536 Q310.792,147.689 310.369,146.785 Q309.946,145.88 309.032,145.149 Q308.119,144.419 306.642,143.946 Q305.164,143.473 302.956,143.473 Q300.881,143.473 299.37,143.987 Q297.86,144.502 296.839,145.266 Q295.818,146.029 295.253,146.909 Q294.689,147.789 294.523,148.536 z" fill="#315180"/>
    <path d="M343.58,144.353 Q343.331,144.27 342.858,144.128 Q342.385,143.987 341.754,143.846 Q341.123,143.705 340.368,143.605 Q339.613,143.506 338.816,143.506 Q337.155,143.506 335.719,143.913 Q334.283,144.319 333.038,144.992 Q331.793,145.664 330.722,146.519 Q329.652,147.374 328.755,148.271 L328.755,162 L322.596,162 L322.596,139.189 L328.755,139.189 L328.755,142.892 Q329.867,142.062 331.038,141.29 Q332.208,140.518 333.478,139.92 Q334.748,139.322 336.159,138.965 Q337.571,138.608 339.148,138.608 Q339.745,138.608 340.368,138.667 Q340.99,138.725 341.58,138.808 Q342.169,138.891 342.684,138.99 Q343.198,139.09 343.58,139.189 z" fill="#315180"/>
  </g>
  <defs/>
</svg>
