<?xml version="1.0" encoding="UTF-8"?>
<!DOCTYPE svg PUBLIC "-//W3C//DTD SVG 1.1//EN" "http://www.w3.org/Graphics/SVG/1.1/DTD/svg11.dtd">
<svg version="1.1" xmlns="http://www.w3.org/2000/svg" xmlns:xlink="http://www.w3.org/1999/xlink" x="0px" y="0px" width="264.851" height="62.301" viewBox="0, 0, 588.557, 138.446">
  <g id="Layer 1">
    <g>
      <g>
        <g>
          <path d="M1,15.692 L44.158,15.692 L44.158,24.297 L9.55,24.297 L9.55,51.597 L44.158,51.597 L44.158,60.202 L9.55,60.202 L9.55,102.991 L1,102.991 z" fill="#FFFFFF"/>
          <path d="M57.189,11.834 C59.063,11.834 60.664,12.507 61.991,13.852 C63.318,15.197 63.982,16.819 63.982,18.718 C63.982,20.578 63.318,22.18 61.991,23.526 C60.664,24.871 59.063,25.543 57.189,25.543 C55.354,25.543 53.773,24.871 52.446,23.526 C51.118,22.18 50.455,20.578 50.455,18.718 C50.455,16.819 51.118,15.197 52.446,13.852 C53.773,12.507 55.354,11.834 57.189,11.834 z M53.09,38.422 L61.347,38.422 L61.347,102.991 L53.09,102.991 z" fill="#FFFFFF"/>
          <path d="M71.626,38.422 L79.825,38.422 L79.825,49.994 C83.104,45.563 86.735,42.25 90.717,40.054 C94.699,37.858 99.032,36.76 103.717,36.76 C108.48,36.76 112.706,37.987 116.395,40.439 C120.084,42.893 122.807,46.196 124.564,50.35 C126.321,54.505 127.199,60.974 127.199,69.757 L127.199,102.991 L119.059,102.991 L119.059,72.19 C119.059,64.752 118.747,59.787 118.122,57.294 C117.146,53.021 115.312,49.807 112.618,47.65 C109.924,45.494 106.411,44.416 102.077,44.416 C97.119,44.416 92.678,46.078 88.755,49.401 C84.831,52.724 82.245,56.839 80.996,61.745 C80.215,64.95 79.825,70.806 79.825,79.312 L79.825,102.991 L71.626,102.991 z" fill="#FFFFFF"/>
          <path d="M199.857,38.422 L199.857,102.991 L191.776,102.991 L191.776,91.894 C188.34,96.127 184.485,99.312 180.211,101.448 C175.936,103.585 171.261,104.653 166.186,104.653 C157.167,104.653 149.467,101.34 143.084,94.713 C136.701,88.085 133.509,80.024 133.509,70.529 C133.509,61.231 136.73,53.278 143.172,46.671 C149.613,40.064 157.363,36.76 166.42,36.76 C171.651,36.76 176.385,37.888 180.62,40.143 C184.856,42.398 188.575,45.781 191.776,50.291 L191.776,38.422 z M167.064,44.772 C162.496,44.772 158.28,45.909 154.415,48.184 C150.55,50.459 147.476,53.654 145.192,57.769 C142.908,61.884 141.766,66.236 141.766,70.825 C141.766,75.375 142.918,79.727 145.221,83.882 C147.525,88.036 150.619,91.27 154.503,93.585 C158.387,95.899 162.555,97.057 167.005,97.057 C171.495,97.057 175.75,95.909 179.771,93.615 C183.792,91.32 186.886,88.214 189.053,84.297 C191.22,80.38 192.303,75.969 192.303,71.063 C192.303,63.585 189.873,57.334 185.012,52.309 C180.152,47.284 174.169,44.772 167.064,44.772 z" fill="#FFFFFF"/>
          <path d="M209.294,13.496 L217.493,13.496 L217.493,102.991 L209.294,102.991 z" fill="#FFFFFF"/>
        </g>
        <g>
          <path d="M278.028,27.561 L265.906,38.422 C261.651,32.408 257.317,29.401 252.906,29.401 C250.759,29.401 249.002,29.985 247.636,31.152 C246.269,32.319 245.586,33.634 245.586,35.098 C245.586,36.562 246.074,37.947 247.05,39.253 C248.377,40.993 252.379,44.732 259.055,50.469 C265.301,55.771 269.088,59.114 270.415,60.499 C273.733,63.901 276.086,67.156 277.472,70.261 C278.857,73.367 279.55,76.76 279.55,80.44 C279.55,87.601 277.11,93.516 272.23,98.184 C267.35,102.853 260.987,105.187 253.14,105.187 C247.011,105.187 241.672,103.664 237.124,100.618 C232.576,97.571 228.682,92.784 225.442,86.256 L239.203,77.828 C243.341,85.543 248.104,89.401 253.491,89.401 C256.302,89.401 258.664,88.57 260.577,86.908 C262.49,85.247 263.447,83.328 263.447,81.152 C263.447,79.173 262.724,77.195 261.28,75.217 C259.835,73.239 256.654,70.212 251.735,66.137 C242.365,58.382 236.314,52.398 233.581,48.184 C230.849,43.971 229.482,39.767 229.482,35.573 C229.482,29.52 231.756,24.327 236.304,19.994 C240.852,15.662 246.464,13.496 253.14,13.496 C257.434,13.496 261.524,14.505 265.408,16.523 C269.293,18.54 273.499,22.22 278.028,27.561 z" fill="#FFFFFF"/>
          <path d="M348.391,51.478 L335.098,58.896 C332.599,56.246 330.13,54.406 327.69,53.377 C325.25,52.349 322.39,51.834 319.111,51.834 C313.138,51.834 308.307,53.644 304.617,57.264 C300.928,60.885 299.084,65.524 299.084,71.181 C299.084,76.681 300.86,81.172 304.413,84.653 C307.965,88.135 312.63,89.876 318.408,89.876 C325.552,89.876 331.116,87.403 335.098,82.457 L347.688,91.181 C340.856,100.163 331.213,104.653 318.76,104.653 C307.555,104.653 298.781,101.29 292.437,94.564 C286.093,87.838 282.921,79.965 282.921,70.944 C282.921,64.693 284.463,58.936 287.547,53.674 C290.632,48.412 294.936,44.277 300.46,41.27 C305.984,38.264 312.162,36.76 318.994,36.76 C325.318,36.76 330.998,38.036 336.035,40.588 C341.071,43.14 345.189,46.77 348.391,51.478 z" fill="#FFFFFF"/>
        </g>
        <g>
          <path d="M465.549,38.422 L465.549,45.543 C468.438,42.616 471.561,40.42 474.919,38.956 C478.276,37.492 481.868,36.76 485.693,36.76 C494.009,36.76 501.075,39.945 506.892,46.315 C512.709,52.685 515.617,60.855 515.617,70.825 C515.617,80.44 512.611,88.481 506.599,94.95 C500.587,101.419 493.462,104.653 485.225,104.653 C481.555,104.653 478.139,103.991 474.977,102.665 C471.815,101.34 468.672,99.173 465.549,96.167 L465.549,126.612 L449.68,126.612 L449.68,38.422 z M482.356,51.715 C477.319,51.716 473.142,53.456 469.824,56.938 C466.506,60.42 464.846,64.97 464.846,70.588 C464.846,76.325 466.506,80.964 469.824,84.505 C473.142,88.046 477.319,89.816 482.356,89.816 C487.235,89.816 491.344,88.016 494.682,84.416 C498.02,80.815 499.689,76.226 499.689,70.647 C499.689,65.108 498.049,60.568 494.77,57.027 C491.491,53.486 487.353,51.716 482.356,51.715 z" fill="#FFFFFF"/>
          <path d="M587.498,75.395 L536.142,75.395 C536.884,79.985 538.865,83.634 542.086,86.345 C545.307,89.055 549.415,90.41 554.413,90.41 C560.385,90.41 565.519,88.293 569.814,84.06 L583.282,90.469 C579.925,95.296 575.904,98.867 571.219,101.181 C566.534,103.496 560.971,104.653 554.53,104.653 C544.536,104.653 536.396,101.458 530.11,95.069 C523.825,88.679 520.682,80.677 520.682,71.063 C520.682,61.211 523.815,53.031 530.081,46.523 C536.347,40.014 544.204,36.76 553.651,36.76 C563.684,36.76 571.844,40.014 578.129,46.523 C584.414,53.031 587.557,61.627 587.557,72.309 z M571.453,62.635 C570.399,59.035 568.32,56.107 565.217,53.852 C562.113,51.597 558.512,50.469 554.413,50.469 C549.962,50.469 546.058,51.735 542.701,54.267 C540.593,55.85 538.641,58.639 536.845,62.635 z" fill="#FFFFFF"/>
        </g>
      </g>
      <g>
        <path d="M439.834,71.591 C439.834,94.914 421.276,113.82 398.385,113.82 C375.493,113.82 356.936,94.914 356.936,71.591 C356.936,48.269 375.493,29.362 398.385,29.362 C421.276,29.362 439.834,48.269 439.834,71.591 z" fill-opacity="0" stroke="#FFFFFF" stroke-width="6.488" stroke-linecap="round"/>
        <path d="M430.3,71.591 C430.3,89.55 416.011,104.108 398.385,104.108 C380.758,104.108 366.469,89.55 366.469,71.591 C366.469,53.633 380.758,39.075 398.385,39.075 C416.011,39.075 430.3,53.633 430.3,71.591 z" fill-opacity="0" stroke="#FFFFFF" stroke-width="4.213" stroke-linecap="round"/>
        <g>
          <path d="M402.529,71.591 C402.529,73.924 400.674,75.814 398.385,75.814 C396.095,75.814 394.24,73.924 394.24,71.591 C394.24,69.259 396.095,67.368 398.385,67.368 C400.674,67.368 402.529,69.259 402.529,71.591 z" fill="#FFFFFF"/>
          <path d="M402.529,71.591 C402.529,73.924 400.674,75.814 398.385,75.814 C396.095,75.814 394.24,73.924 394.24,71.591 C394.24,69.259 396.095,67.368 398.385,67.368 C400.674,67.368 402.529,69.259 402.529,71.591 z" fill-opacity="0" stroke="#FFFFFF" stroke-width="32.44" stroke-linecap="round"/>
        </g>
        <path d="M357.615,30.993 C357.017,31.591 357.035,32.546 357.633,33.143 L385.654,61.164 C385.99,60.751 386.371,60.338 386.756,59.953 C387.146,59.563 387.547,59.192 387.966,58.851 L359.945,30.831 C359.348,30.233 358.375,30.233 357.778,30.831 L357.615,30.993 z M407.821,83.331 L435.842,111.352 C436.439,111.949 437.376,111.949 437.974,111.352 L438.136,111.189 C438.734,110.592 438.752,109.637 438.154,109.039 L410.133,81.019 C409.792,81.438 409.422,81.838 409.031,82.229 C408.647,82.614 408.233,82.995 407.821,83.331 z" fill="#FFFFFF"/>
        <path d="M357.615,109.039 C357.017,109.637 357.035,110.592 357.633,111.189 L357.796,111.352 C358.393,111.949 359.33,111.949 359.927,111.352 L387.948,83.331 C387.529,82.99 387.128,82.62 386.738,82.229 C386.347,81.838 385.977,81.438 385.636,81.019 L357.615,109.039 z M407.803,58.851 C408.222,59.192 408.623,59.563 409.013,59.953 C409.404,60.344 409.774,60.744 410.115,61.164 L438.136,33.143 C438.734,32.546 438.752,31.591 438.154,30.993 L437.992,30.831 C437.394,30.233 436.421,30.233 435.824,30.831 L407.803,58.851 z" fill="#FFFFFF"/>
      </g>
    </g>
  </g>
  <defs/>
</svg>
