<?xml version="1.0" encoding="UTF-8"?>
<!DOCTYPE svg PUBLIC "-//W3C//DTD SVG 1.1//EN" "http://www.w3.org/Graphics/SVG/1.1/DTD/svg11.dtd">
<svg version="1.1" xmlns="http://www.w3.org/2000/svg" xmlns:xlink="http://www.w3.org/1999/xlink" x="0px" y="0px" width="90" height="54" viewBox="0, 0, 90, 54">
  <g id="Layer 1">
    <path d="M41.117,28.323 C40.816,28.323 40.513,28.299 40.289,27.984 C40.357,26.793 40.746,25.903 41.124,25.044 C41.293,24.657 41.463,24.272 41.601,23.857 L41.77,23.368 L41.909,23.864 C42.236,25.015 42.132,27.16 41.626,28.314 L41.117,28.323 z M78.713,20.804 L78.562,20.945 C75.991,23.369 75.059,27.484 74.387,31.149 C76.532,30.569 78.355,28.587 79.142,26.407 C79.622,25.076 79.953,23.054 78.814,20.985 L78.713,20.804 z M31.748,27.408 C31.883,27.461 32.036,27.523 32.249,27.523 L32.356,27.501 L32.616,27.373 C32.818,26.387 32.755,25.11 32.447,23.869 C31.656,24.767 31.173,25.815 30.99,27.156 L30.966,27.338 L31.368,27.317 C31.518,27.316 31.625,27.356 31.748,27.408 z M90,50.785 C90,52.561 88.561,54 86.785,54 L3.215,54 C1.439,54 0,52.561 0,50.785 L0,3.215 C0,1.439 1.439,0 3.215,0 L86.785,0 C88.561,0 90,1.439 90,3.215 L90,50.785 z M27.03,33.304 C26.138,30.846 25.56,28.06 25.005,25.332 C24.286,21.827 23.546,18.268 22.289,15.49 C22.14,15.504 21.992,15.642 21.85,15.642 C21.406,15.642 21.019,15.747 20.633,15.685 C20.266,15.621 19.898,16 19.464,16 C19.424,16 19.38,16 19.34,16 C19.227,16 19.125,15.559 19.076,15.527 C17.072,18.238 16.383,21.898 15.477,25.609 C14.976,24.73 14.517,23.828 14.062,22.905 C13.258,21.283 12.427,19.617 11.485,18.282 C11.221,18.26 10.964,18.258 10.718,18.258 C9.639,18.258 8.66,18.452 7.74,18.72 L7.693,21.211 C7.592,25.488 7.506,29.181 8.584,32.668 C8.784,32.701 8.988,32.718 9.19,32.718 C10.482,32.718 11.625,32.087 12.121,31.834 C12.2,30.74 12.064,29.887 11.924,28.98 C11.849,28.516 11.773,28.048 12.019,27.44 C12.768,28.412 13.427,29.479 14.083,30.544 C14.501,31.219 14.919,31.891 15.239,32.471 C15.455,32.493 15.659,32.502 15.854,32.502 C16.359,32.502 16.805,32.439 17.25,32.379 C17.713,32.317 18.171,32.258 18.695,32.258 L18.992,32.366 C19.586,31.048 19.618,29.109 19.649,27.232 C19.677,25.51 19.708,23.732 20.473,22.407 C21.308,26.255 22.446,29.993 23.945,33.829 C24.472,33.757 25.056,33.576 25.596,33.409 C25.998,33.284 26.362,33.166 26.651,33.166 C26.798,33.166 26.926,33.231 27.03,33.304 z M37.382,34.11 C37.094,33.588 36.679,33.345 36.088,33.345 C35.636,33.345 35.121,33.473 34.625,33.609 C34.117,33.746 33.596,33.877 33.126,33.877 C32.996,33.877 32.875,33.845 32.755,33.82 C32.19,33.713 31.733,33.359 31.401,32.867 C30.801,31.974 30.654,30.512 31.192,28.73 C32.059,28.965 33.15,29 34.344,29 C34.445,29 34.541,29 34.638,29 C34.944,29 35.223,29.098 35.405,29.172 C35.992,26.787 35.676,23.536 35.205,21.666 C34.841,21.59 34.517,21.457 34.194,21.346 C33.628,21.151 33.098,20.961 32.373,20.961 C32.248,20.961 32.118,20.955 31.989,20.97 C29.692,21.278 28.13,24.5 27.774,27.527 C27.444,30.321 28.046,33.675 30.718,34.706 C31.268,34.918 31.952,35.024 32.748,35.024 C34.337,35.023 36.18,34.578 37.382,34.11 z M46.498,33.429 C46.353,32.95 45.938,32.685 45.32,32.493 C44.796,33.306 43.98,33.757 43.015,33.757 C41.99,33.757 40.972,33.236 40.361,32.395 C39.777,31.592 39.634,30.59 40.15,29.47 C40.978,29.639 41.788,29.793 42.543,29.793 C43.17,29.793 43.734,29.693 44.209,29.639 C44.062,27.804 44.275,26.517 44.501,25.155 C44.689,24.017 44.884,22.843 44.925,21.422 C43.879,20.631 42.766,20.227 41.525,20.117 C38.462,22.459 37.04,26.048 37.174,31.061 C37.593,33.278 40.514,34.649 42.983,34.649 C44.488,34.648 45.751,34.159 46.498,33.429 z M57.109,26.556 C56.729,26.251 56.406,25.893 56.083,25.529 C55.472,24.845 54.895,24.199 53.956,23.947 C53.761,23.951 53.723,24.093 53.701,24.526 C53.681,24.874 53.653,25.41 53.121,25.41 L52.756,25.414 L52.772,25.287 C52.902,23.733 52.788,21.943 52.663,19.959 C52.491,17.146 52.311,14.515 52.81,12.136 C52.191,11.393 51.247,11 49.419,11 C49.395,11 49.373,11 49.351,11 C49.2,11 49.063,10.531 49.022,10.449 C48.081,13.344 48.538,16.516 48.98,19.983 C49.235,21.961 49.474,23.806 49.182,25.596 C48.82,25.596 48.453,25.551 48.098,25.523 C47.782,25.496 47.47,25.463 47.191,25.463 C46.667,25.463 46.354,25.554 46.165,25.768 C45.952,26.007 45.889,26.416 45.901,26.91 C46.623,27.406 47.873,27.44 49.081,27.471 L49.842,27.644 C49.875,28.701 49.958,29.709 50.039,30.72 C50.162,32.199 50.283,33.729 50.253,35.396 C50.573,35.352 50.861,35.336 51.141,35.319 C51.681,35.284 52.193,35.252 52.773,35.183 C52.755,34.003 52.711,32.878 52.669,31.795 C52.612,30.282 52.556,28.846 52.688,27.294 C53.223,27.141 53.872,27.106 54.498,27.072 C55.547,27.013 56.633,26.954 57.109,26.556 z M68.267,24.677 C67.516,24.062 66.584,23 65.522,23 C65.438,23 65.355,23 65.281,23 C65.167,23 65.07,23.291 65.017,23.238 L64.991,24.347 C64.92,27.388 64.819,31.601 61.91,32.612 C61.633,30.786 61.558,28.792 61.488,27.008 C61.451,26.057 61.416,25.195 61.448,24.592 C61.165,24.456 60.904,24.31 60.648,24.154 C59.925,23.72 59.245,23.315 58.146,23.171 C57.708,28.4 58.234,31.863 59.706,33.461 C60.312,34.12 61.093,34.457 62.026,34.457 C62.681,34.457 63.425,34.296 64.164,34.034 L64.445,33.601 C64.97,32.797 65.315,32.263 66.1,31.667 C66.3,31.309 66.513,30.867 66.73,30.524 C67.691,28.982 68.599,27.334 68.267,24.677 z M82.31,19.754 C80.708,18.816 79.313,18.364 78.04,18.364 C76.456,18.364 75.083,19.076 73.841,20.545 C71.503,23.305 71.016,29.052 70.68,31.946 C70.539,32.006 70.385,32.053 70.229,32.097 C69.823,32.218 69.441,32.332 69.295,32.521 C70.524,33.945 70.765,36.36 71,38.691 C71.183,40.491 71.367,42.352 71.895,43.616 C72.187,43.679 72.598,43.712 73.15,43.712 C73.409,43.712 73.681,43.704 73.952,43.704 C74.409,43.704 74.859,43.724 75.216,43.833 C74.365,41.687 74.033,38.779 74.297,34.53 C77.765,33.71 80.848,31.249 82.339,28.107 C83.239,26.209 83.955,23.207 82.31,19.754 z" fill="#FFFFFF"/>
  </g>
  <defs/>
</svg>
