<?xml version="1.0" encoding="UTF-8"?>
<!DOCTYPE svg PUBLIC "-//W3C//DTD SVG 1.1//EN" "http://www.w3.org/Graphics/SVG/1.1/DTD/svg11.dtd">
<svg version="1.1" xmlns="http://www.w3.org/2000/svg" xmlns:xlink="http://www.w3.org/1999/xlink" x="0px" y="0px" width="317.072" height="63.007" viewBox="0, 0, 352.302, 70.008">
  <g id="Layer 1">
    <g>
      <path d="M41.024,68.008 L2,45.488 L41.024,22.946 L41.024,68.008 z" fill="#FFFFFF"/>
      <path d="M50.146,68.008 L50.146,22.946 L89.17,45.488 L50.146,68.008 z" fill="#FFFFFF"/>
      <path d="M41.682,2 L2.66,41.024 L2.66,2 L41.682,2 z" fill="#FFFFFF"/>
      <path d="M88.51,2 L88.51,41.024 L49.486,2 L88.51,2 z" fill="#FFFFFF"/>
    </g>
    <g>
      <path d="M131.696,34.386 L127.8,34.386 L125.258,27.128 C125.026,26.5 124.718,25.922 124.336,25.394 C123.954,24.868 123.508,24.414 123.002,24.03 C122.496,23.646 121.932,23.35 121.31,23.138 C120.686,22.928 120.028,22.82 119.33,22.82 L112.686,22.82 L112.686,34.386 L109.098,34.386 L109.098,7.316 L121.096,7.316 C121.82,7.316 122.512,7.334 123.168,7.368 C123.824,7.402 124.45,7.478 125.044,7.592 C125.638,7.71 126.202,7.884 126.736,8.116 C127.27,8.348 127.776,8.67 128.254,9.08 C129.074,9.804 129.696,10.68 130.12,11.706 C130.544,12.732 130.756,13.79 130.756,14.884 C130.756,15.828 130.616,16.696 130.336,17.488 C130.054,18.28 129.652,18.986 129.126,19.6 C128.6,20.214 127.96,20.734 127.21,21.158 C126.46,21.582 125.61,21.882 124.668,22.06 L124.668,22.122 C126.554,22.71 128.004,24.344 129.016,27.024 L131.696,34.386 z M112.686,19.58 L120.726,19.58 C121.834,19.58 122.788,19.498 123.586,19.334 C124.386,19.17 125.044,18.904 125.554,18.534 C126.068,18.164 126.442,17.68 126.682,17.078 C126.92,16.476 127.04,15.744 127.04,14.884 C127.04,13.326 126.562,12.174 125.604,11.428 C124.646,10.682 123.198,10.31 121.256,10.31 L112.684,10.31 L112.684,19.58 z" fill="#FFFFFF"/>
      <path d="M157.474,34.386 L137.254,34.386 L137.254,7.316 L156.86,7.316 L156.86,10.536 L140.844,10.536 L140.844,18.76 L155.814,18.76 L155.814,21.98 L140.844,21.98 L140.844,31.168 L157.476,31.168 L157.476,34.386 z" fill="#FFFFFF"/>
      <path d="M181.63,10.536 L166.926,10.536 L166.926,18.904 L179.702,18.904 L179.702,22.124 L166.926,22.124 L166.926,34.386 L163.338,34.386 L163.338,7.316 L181.63,7.316 L181.63,10.536 z" fill="#FFFFFF"/>
      <path d="M204.066,34.386 L187.29,34.386 L187.29,7.316 L190.878,7.316 L190.878,31.166 L204.064,31.166 L204.064,34.386 z" fill="#FFFFFF"/>
      <path d="M229.392,34.386 L209.172,34.386 L209.172,7.316 L228.778,7.316 L228.778,10.536 L212.762,10.536 L212.762,18.76 L227.734,18.76 L227.734,21.98 L212.762,21.98 L212.762,31.168 L229.394,31.168 L229.394,34.386 z" fill="#FFFFFF"/>
      <path d="M257.612,15.52 L253.94,15.52 C253.886,14.658 253.658,13.884 253.264,13.192 C252.866,12.502 252.346,11.914 251.706,11.428 C251.062,10.942 250.312,10.57 249.448,10.31 C248.588,10.05 247.658,9.92 246.658,9.92 C245.29,9.92 244.056,10.16 242.958,10.638 C241.856,11.116 240.918,11.816 240.146,12.74 C239.374,13.662 238.778,14.8 238.364,16.154 C237.946,17.508 237.738,19.066 237.738,20.83 C237.738,22.58 237.946,24.136 238.364,25.496 C238.778,26.856 239.372,28 240.138,28.932 C240.904,29.862 241.834,30.568 242.928,31.054 C244.022,31.54 245.236,31.782 246.576,31.782 C247.63,31.782 248.59,31.652 249.458,31.394 C250.326,31.132 251.08,30.748 251.712,30.234 C252.348,29.722 252.858,29.098 253.242,28.358 C253.624,27.62 253.858,26.766 253.94,25.794 L257.612,25.794 C257.486,27.23 257.128,28.508 256.534,29.628 C255.94,30.75 255.158,31.7 254.198,32.48 C253.234,33.26 252.108,33.852 250.822,34.254 C249.536,34.656 248.142,34.86 246.638,34.86 C244.71,34.86 242.966,34.532 241.408,33.876 C239.85,33.22 238.526,32.28 237.432,31.056 C236.338,29.834 235.496,28.356 234.908,26.626 C234.32,24.898 234.026,22.966 234.026,20.834 C234.026,18.702 234.322,16.77 234.92,15.042 C235.514,13.312 236.358,11.838 237.452,10.622 C238.546,9.406 239.872,8.466 241.43,7.802 C242.988,7.14 244.724,6.808 246.638,6.808 C248.074,6.808 249.428,7.016 250.698,7.434 C251.97,7.852 253.098,8.44 254.082,9.198 C255.066,9.958 255.868,10.874 256.492,11.946 C257.116,13.016 257.486,14.208 257.612,15.52 z" fill="#FFFFFF"/>
      <path d="M282.69,10.536 L273.73,10.536 L273.73,34.386 L270.14,34.386 L270.14,10.536 L261.242,10.536 L261.242,7.316 L282.692,7.316 L282.692,10.536 z" fill="#FFFFFF"/>
      <path d="M291.428,34.386 L287.858,34.386 L287.858,7.316 L291.428,7.316 L291.428,34.386 z" fill="#FFFFFF"/>
      <path d="M310.458,6.846 C312.33,6.846 314.06,7.18 315.646,7.85 C317.232,8.52 318.6,9.468 319.748,10.69 C320.896,11.912 321.79,13.386 322.436,15.108 C323.076,16.83 323.396,18.738 323.396,20.83 C323.396,22.908 323.08,24.806 322.442,26.522 C321.804,28.238 320.918,29.714 319.778,30.952 C318.634,32.19 317.27,33.15 315.684,33.832 C314.098,34.514 312.356,34.858 310.458,34.858 C308.556,34.858 306.814,34.52 305.228,33.842 C303.642,33.166 302.274,32.214 301.126,30.982 C299.978,29.75 299.084,28.274 298.45,26.552 C297.814,24.83 297.496,22.922 297.496,20.83 C297.496,18.724 297.82,16.81 298.468,15.088 C299.116,13.366 300.014,11.892 301.164,10.668 C302.312,9.446 303.68,8.502 305.266,7.838 C306.854,7.178 308.584,6.846 310.458,6.846 z M310.436,31.782 C311.792,31.782 313.034,31.534 314.17,31.034 C315.302,30.534 316.284,29.818 317.104,28.88 C317.924,27.944 318.562,26.798 319.018,25.446 C319.478,24.092 319.706,22.554 319.706,20.832 C319.706,19.11 319.476,17.572 319.01,16.218 C318.544,14.864 317.9,13.722 317.08,12.794 C316.26,11.866 315.29,11.158 314.17,10.67 C313.048,10.186 311.83,9.942 310.518,9.942 C309.166,9.942 307.92,10.188 306.788,10.68 C305.652,11.172 304.67,11.888 303.842,12.824 C303.018,13.76 302.37,14.902 301.904,16.248 C301.44,17.596 301.208,19.124 301.208,20.832 C301.208,22.554 301.434,24.092 301.896,25.446 C302.354,26.8 302.994,27.946 303.814,28.88 C304.634,29.818 305.606,30.534 306.736,31.034 C307.862,31.534 309.096,31.782 310.436,31.782 z" fill="#FFFFFF"/>
      <path d="M350.302,34.386 L346.63,34.386 L332.42,13.038 L332.42,34.386 L329.018,34.386 L329.018,7.316 L332.728,7.316 L346.876,28.706 L346.876,7.316 L350.302,7.316 L350.302,34.386 z" fill="#FFFFFF"/>
    </g>
    <g>
      <path d="M120.65,56.834 C120.418,57.312 120.116,57.736 119.748,58.106 C119.38,58.476 118.972,58.79 118.528,59.05 C118.082,59.31 117.614,59.508 117.122,59.646 C116.63,59.784 116.138,59.85 115.646,59.85 C114.826,59.85 114.074,59.69 113.39,59.37 C112.706,59.05 112.118,58.62 111.626,58.088 C111.134,57.552 110.75,56.936 110.478,56.23 C110.204,55.526 110.068,54.784 110.068,54.006 C110.068,53.062 110.256,52.188 110.632,51.38 C111.008,50.572 111.514,49.868 112.15,49.266 C112.786,48.664 113.522,48.194 114.356,47.852 C115.19,47.51 116.072,47.34 117.002,47.34 C117.454,47.34 117.908,47.38 118.366,47.462 C118.824,47.544 119.272,47.702 119.708,47.934 C119.9,48.03 120.032,48.156 120.108,48.312 C120.184,48.47 120.222,48.624 120.222,48.772 C120.222,49.018 120.126,49.276 119.934,49.542 C119.742,49.81 119.428,50.052 118.99,50.27 L118.888,50.27 C118.382,49.75 117.896,49.368 117.432,49.122 C116.968,48.876 116.428,48.752 115.812,48.752 C115.238,48.752 114.734,48.87 114.306,49.1 C113.874,49.334 113.516,49.642 113.228,50.024 C112.94,50.406 112.722,50.848 112.572,51.346 C112.422,51.846 112.346,52.362 112.346,52.894 C112.346,53.564 112.444,54.206 112.642,54.822 C112.84,55.438 113.124,55.978 113.494,56.444 C113.864,56.91 114.318,57.28 114.858,57.562 C115.398,57.844 116.018,57.982 116.714,57.982 C117.37,57.982 118,57.846 118.6,57.572 C119.2,57.298 119.686,56.874 120.056,56.3 L120.65,56.834 z" fill="#FFFFFF"/>
      <path d="M125.488,53.716 C125.488,52.84 125.648,52.014 125.97,51.234 C126.29,50.456 126.728,49.778 127.282,49.204 C127.834,48.63 128.488,48.174 129.24,47.84 C129.992,47.506 130.798,47.338 131.66,47.338 C132.59,47.338 133.438,47.498 134.202,47.818 C134.968,48.14 135.62,48.578 136.16,49.13 C136.7,49.684 137.118,50.334 137.412,51.08 C137.704,51.826 137.852,52.622 137.852,53.468 C137.852,54.356 137.69,55.188 137.37,55.96 C137.048,56.732 136.61,57.406 136.058,57.98 C135.504,58.554 134.848,59.01 134.09,59.344 C133.33,59.678 132.52,59.846 131.66,59.846 C130.73,59.846 129.886,59.686 129.128,59.366 C128.368,59.046 127.718,58.606 127.178,58.054 C126.638,57.5 126.22,56.85 125.928,56.104 C125.634,55.362 125.488,54.564 125.488,53.716 z M131.926,58.844 C132.528,58.844 133.044,58.7 133.474,58.414 C133.904,58.124 134.26,57.758 134.54,57.304 C134.82,56.854 135.024,56.346 135.156,55.788 C135.284,55.226 135.35,54.666 135.35,54.104 C135.35,53.448 135.278,52.78 135.134,52.096 C134.992,51.412 134.762,50.794 134.448,50.238 C134.134,49.686 133.726,49.23 133.228,48.874 C132.728,48.518 132.124,48.34 131.412,48.34 C130.796,48.34 130.274,48.48 129.842,48.76 C129.412,49.042 129.06,49.406 128.786,49.858 C128.512,50.31 128.31,50.816 128.182,51.376 C128.052,51.936 127.986,52.498 127.986,53.058 C127.986,53.686 128.062,54.344 128.212,55.026 C128.362,55.708 128.594,56.332 128.91,56.892 C129.224,57.454 129.63,57.92 130.13,58.286 C130.63,58.66 131.23,58.844 131.926,58.844 z" fill="#FFFFFF"/>
      <path d="M149.416,59.438 C148.978,59.438 148.486,59.432 147.94,59.418 C147.394,59.404 146.792,59.398 146.136,59.398 C145.602,59.398 145.072,59.404 144.548,59.418 C144.02,59.432 143.566,59.438 143.184,59.438 L143.122,58.782 C143.586,58.742 143.958,58.68 144.24,58.598 C144.522,58.516 144.74,58.39 144.896,58.22 C145.052,58.05 145.156,57.81 145.204,57.502 C145.25,57.196 145.276,56.782 145.276,56.262 L145.276,50.948 C145.276,50.566 145.256,50.264 145.214,50.046 C145.172,49.828 145.088,49.652 144.958,49.522 C144.828,49.394 144.636,49.292 144.384,49.226 C144.13,49.156 143.8,49.09 143.388,49.018 L143.326,48.444 C143.668,48.378 144.034,48.296 144.424,48.198 C144.812,48.104 145.192,48.004 145.562,47.902 C145.932,47.8 146.276,47.7 146.598,47.606 C146.918,47.51 147.182,47.422 147.388,47.34 L147.634,47.504 C147.592,47.79 147.558,48.074 147.532,48.354 C147.504,48.636 147.49,48.918 147.49,49.206 C148.2,48.618 148.952,48.162 149.746,47.832 C150.54,47.502 151.298,47.34 152.022,47.34 C152.706,47.34 153.316,47.508 153.858,47.842 C154.398,48.176 154.804,48.714 155.078,49.452 C155.858,48.782 156.664,48.262 157.498,47.894 C158.332,47.526 159.146,47.342 159.938,47.342 C160.402,47.342 160.844,47.42 161.26,47.576 C161.676,47.734 162.036,47.982 162.338,48.326 C162.638,48.666 162.878,49.102 163.056,49.626 C163.234,50.154 163.322,50.792 163.322,51.544 L163.322,57.102 C163.322,57.43 163.342,57.692 163.384,57.892 C163.426,58.092 163.51,58.244 163.64,58.352 C163.77,58.46 163.966,58.536 164.224,58.578 C164.484,58.618 164.832,58.652 165.27,58.68 L165.228,59.438 C164.79,59.438 164.308,59.432 163.782,59.418 C163.254,59.404 162.67,59.398 162.028,59.398 C161.494,59.398 160.986,59.404 160.5,59.418 C160.014,59.432 159.58,59.438 159.198,59.438 L159.136,58.782 C159.56,58.742 159.902,58.688 160.162,58.618 C160.422,58.552 160.62,58.438 160.756,58.28 C160.892,58.124 160.982,57.9 161.022,57.604 C161.062,57.308 161.084,56.902 161.084,56.384 L161.084,52.056 C161.084,50.962 160.854,50.174 160.396,49.688 C159.938,49.202 159.354,48.96 158.644,48.96 C158.138,48.96 157.598,49.076 157.024,49.31 C156.45,49.54 155.876,49.856 155.302,50.252 C155.33,50.444 155.352,50.638 155.374,50.838 C155.394,51.038 155.404,51.244 155.404,51.464 L155.404,57.104 C155.404,57.432 155.424,57.694 155.466,57.894 C155.508,58.094 155.592,58.246 155.722,58.354 C155.852,58.462 156.048,58.538 156.306,58.58 C156.566,58.62 156.914,58.654 157.352,58.682 L157.31,59.44 C156.872,59.44 156.39,59.434 155.864,59.42 C155.336,59.406 154.752,59.4 154.11,59.4 C153.576,59.4 153.068,59.406 152.582,59.42 C152.096,59.434 151.662,59.44 151.28,59.44 L151.054,58.784 C151.478,58.744 151.83,58.69 152.11,58.62 C152.39,58.554 152.606,58.44 152.756,58.282 C152.906,58.126 153.012,57.902 153.074,57.606 C153.134,57.312 153.166,56.904 153.166,56.386 L153.166,52.058 C153.166,50.964 152.936,50.176 152.478,49.69 C152.02,49.204 151.436,48.962 150.726,48.962 C150.248,48.962 149.728,49.07 149.168,49.28 C148.608,49.49 148.046,49.788 147.486,50.17 L147.486,57.104 C147.486,57.432 147.502,57.694 147.538,57.894 C147.572,58.094 147.658,58.246 147.794,58.354 C147.93,58.462 148.132,58.538 148.4,58.58 C148.666,58.62 149.026,58.654 149.476,58.682 L149.416,59.438 z" fill="#FFFFFF"/>
      <path d="M176.32,59.438 C175.882,59.438 175.39,59.432 174.844,59.418 C174.298,59.404 173.696,59.398 173.04,59.398 C172.506,59.398 171.976,59.404 171.45,59.418 C170.924,59.432 170.47,59.438 170.086,59.438 L170.024,58.782 C170.488,58.742 170.86,58.68 171.142,58.598 C171.422,58.516 171.64,58.39 171.798,58.22 C171.954,58.048 172.056,57.81 172.104,57.502 C172.152,57.196 172.176,56.782 172.176,56.262 L172.176,50.948 C172.176,50.566 172.156,50.264 172.114,50.046 C172.072,49.828 171.988,49.652 171.858,49.522 C171.728,49.392 171.536,49.292 171.284,49.226 C171.032,49.156 170.7,49.09 170.29,49.018 L170.228,48.444 C170.57,48.378 170.936,48.296 171.324,48.198 C171.714,48.104 172.094,48.004 172.462,47.902 C172.832,47.8 173.176,47.7 173.498,47.606 C173.82,47.512 174.082,47.422 174.288,47.34 L174.534,47.504 C174.492,47.79 174.458,48.074 174.432,48.354 C174.404,48.636 174.39,48.918 174.39,49.206 C175.1,48.618 175.852,48.162 176.646,47.832 C177.44,47.502 178.198,47.34 178.922,47.34 C179.606,47.34 180.216,47.508 180.756,47.842 C181.296,48.176 181.704,48.714 181.976,49.452 C182.756,48.782 183.562,48.262 184.396,47.894 C185.23,47.526 186.044,47.342 186.836,47.342 C187.3,47.342 187.742,47.42 188.16,47.576 C188.576,47.734 188.936,47.982 189.236,48.326 C189.536,48.666 189.776,49.102 189.954,49.626 C190.132,50.154 190.22,50.792 190.22,51.544 L190.22,57.102 C190.22,57.43 190.24,57.692 190.282,57.892 C190.324,58.092 190.408,58.244 190.538,58.352 C190.666,58.462 190.862,58.536 191.122,58.578 C191.382,58.618 191.73,58.652 192.168,58.68 L192.126,59.438 C191.688,59.438 191.206,59.432 190.68,59.418 C190.154,59.404 189.57,59.398 188.928,59.398 C188.394,59.398 187.886,59.404 187.4,59.418 C186.914,59.432 186.482,59.438 186.098,59.438 L186.036,58.782 C186.46,58.742 186.802,58.688 187.062,58.618 C187.322,58.552 187.52,58.438 187.656,58.28 C187.792,58.124 187.882,57.9 187.922,57.604 C187.962,57.308 187.984,56.902 187.984,56.384 L187.984,52.056 C187.984,50.962 187.754,50.174 187.298,49.688 C186.84,49.204 186.256,48.96 185.544,48.96 C185.038,48.96 184.498,49.076 183.924,49.31 C183.35,49.54 182.776,49.856 182.202,50.252 C182.23,50.444 182.254,50.638 182.274,50.838 C182.296,51.038 182.306,51.244 182.306,51.464 L182.306,57.104 C182.306,57.432 182.326,57.694 182.368,57.894 C182.41,58.094 182.494,58.246 182.624,58.354 C182.752,58.464 182.948,58.538 183.208,58.58 C183.468,58.62 183.816,58.654 184.254,58.682 L184.212,59.44 C183.774,59.44 183.292,59.434 182.766,59.42 C182.24,59.406 181.656,59.4 181.014,59.4 C180.48,59.4 179.972,59.406 179.486,59.42 C179,59.434 178.568,59.44 178.184,59.44 L177.958,58.784 C178.382,58.744 178.734,58.69 179.014,58.62 C179.294,58.554 179.51,58.44 179.66,58.282 C179.81,58.126 179.916,57.902 179.978,57.606 C180.04,57.312 180.07,56.904 180.07,56.386 L180.07,52.058 C180.07,50.964 179.84,50.176 179.384,49.69 C178.926,49.206 178.342,48.962 177.63,48.962 C177.152,48.962 176.632,49.07 176.072,49.28 C175.512,49.49 174.95,49.788 174.39,50.17 L174.39,57.104 C174.39,57.432 174.406,57.694 174.44,57.894 C174.474,58.094 174.56,58.246 174.696,58.354 C174.832,58.462 175.034,58.538 175.3,58.58 C175.568,58.62 175.926,58.654 176.378,58.682 L176.32,59.438 z" fill="#FFFFFF"/>
      <path d="M206.566,59.562 C206.594,59.316 206.614,59.024 206.628,58.688 C206.642,58.354 206.648,58.062 206.648,57.816 C205.938,58.458 205.174,58.958 204.36,59.314 C203.546,59.67 202.764,59.846 202.012,59.846 C201.506,59.846 201.042,59.764 200.618,59.6 C200.194,59.436 199.826,59.18 199.51,58.832 C199.196,58.482 198.95,58.036 198.772,57.488 C198.594,56.94 198.506,56.284 198.506,55.52 L198.506,50.62 C198.506,50.238 198.486,49.936 198.444,49.718 C198.402,49.5 198.318,49.324 198.188,49.194 C198.058,49.066 197.872,48.968 197.634,48.906 C197.394,48.844 197.078,48.78 196.68,48.71 L196.638,48.114 C197.076,48.06 197.51,47.998 197.94,47.93 C198.37,47.862 198.774,47.794 199.148,47.724 C199.522,47.654 199.852,47.588 200.132,47.518 C200.412,47.448 200.628,47.39 200.778,47.334 L200.984,47.498 C200.942,47.838 200.912,48.206 200.892,48.594 C200.87,48.984 200.85,49.364 200.83,49.732 C200.81,50.102 200.796,50.454 200.788,50.788 C200.78,51.122 200.778,51.414 200.778,51.66 L200.778,54.736 C200.778,55.378 200.842,55.924 200.974,56.366 C201.102,56.81 201.278,57.168 201.496,57.442 C201.714,57.716 201.974,57.91 202.276,58.026 C202.576,58.144 202.898,58.2 203.24,58.2 C203.8,58.2 204.378,58.082 204.972,57.842 C205.568,57.602 206.124,57.286 206.644,56.886 L206.644,50.612 C206.644,50.23 206.624,49.928 206.582,49.71 C206.54,49.492 206.452,49.316 206.316,49.186 C206.18,49.056 205.978,48.96 205.71,48.898 C205.444,48.836 205.084,48.772 204.634,48.702 L204.592,48.106 C205.056,48.052 205.518,47.99 205.976,47.922 C206.434,47.854 206.854,47.782 207.236,47.708 C207.618,47.634 207.954,47.564 208.24,47.502 C208.528,47.44 208.732,47.382 208.856,47.328 L209.082,47.492 C209.04,47.832 209.006,48.2 208.98,48.588 C208.952,48.978 208.93,49.358 208.908,49.726 C208.888,50.096 208.874,50.448 208.866,50.782 C208.858,51.116 208.856,51.408 208.856,51.654 L208.856,56.434 C208.856,56.828 208.876,57.138 208.918,57.356 C208.96,57.574 209.052,57.746 209.194,57.868 C209.338,57.994 209.546,58.084 209.82,58.146 C210.094,58.208 210.47,58.272 210.948,58.342 L211.03,58.936 C210.62,58.978 210.2,59.03 209.768,59.09 C209.338,59.152 208.928,59.216 208.538,59.286 C208.15,59.354 207.796,59.428 207.482,59.51 C207.168,59.592 206.928,59.662 206.764,59.718 L206.566,59.562 z" fill="#FFFFFF"/>
      <path d="M222.064,59.438 C221.626,59.438 221.134,59.432 220.588,59.418 C220.042,59.404 219.44,59.398 218.784,59.398 C218.252,59.398 217.722,59.404 217.194,59.418 C216.668,59.432 216.214,59.438 215.83,59.438 L215.77,58.782 C216.234,58.742 216.608,58.68 216.89,58.598 C217.168,58.516 217.386,58.39 217.546,58.22 C217.702,58.048 217.804,57.81 217.85,57.502 C217.898,57.196 217.924,56.782 217.924,56.262 L217.924,50.948 C217.924,50.566 217.902,50.264 217.862,50.046 C217.822,49.828 217.736,49.652 217.604,49.522 C217.476,49.394 217.284,49.292 217.03,49.226 C216.778,49.156 216.448,49.09 216.038,49.018 L215.976,48.444 C216.318,48.378 216.684,48.296 217.074,48.198 C217.464,48.104 217.844,48.004 218.21,47.902 C218.582,47.8 218.924,47.7 219.246,47.606 C219.568,47.51 219.832,47.422 220.038,47.34 L220.284,47.504 C220.242,47.79 220.208,48.074 220.18,48.354 C220.152,48.636 220.14,48.918 220.14,49.206 C220.878,48.618 221.66,48.162 222.488,47.832 C223.314,47.504 224.106,47.34 224.856,47.34 C225.348,47.34 225.81,47.418 226.242,47.574 C226.672,47.732 227.042,47.98 227.36,48.324 C227.672,48.664 227.922,49.1 228.106,49.624 C228.294,50.152 228.384,50.79 228.384,51.542 L228.384,57.1 C228.384,57.428 228.406,57.69 228.446,57.89 C228.486,58.09 228.572,58.242 228.704,58.35 C228.832,58.46 229.028,58.534 229.286,58.576 C229.548,58.616 229.896,58.65 230.332,58.678 L230.29,59.436 C229.852,59.436 229.37,59.43 228.842,59.416 C228.316,59.402 227.724,59.396 227.068,59.396 C226.536,59.396 226.026,59.402 225.54,59.416 C225.054,59.43 224.622,59.436 224.24,59.436 L224.178,58.78 C224.602,58.74 224.944,58.686 225.204,58.616 C225.464,58.55 225.662,58.436 225.8,58.278 C225.936,58.122 226.024,57.898 226.066,57.602 C226.108,57.306 226.128,56.9 226.128,56.382 L226.128,52.054 C226.128,50.96 225.884,50.172 225.398,49.686 C224.914,49.202 224.302,48.958 223.564,48.958 C223.044,48.958 222.492,49.066 221.902,49.276 C221.316,49.486 220.726,49.784 220.14,50.166 L220.14,57.1 C220.14,57.428 220.156,57.69 220.19,57.89 C220.224,58.09 220.31,58.242 220.446,58.35 C220.582,58.458 220.784,58.534 221.05,58.576 C221.32,58.616 221.676,58.65 222.128,58.678 L222.064,59.438 z" fill="#FFFFFF"/>
      <path d="M241.564,59.438 C241.126,59.438 240.602,59.432 239.986,59.418 C239.37,59.404 238.736,59.398 238.08,59.398 C237.544,59.398 237.026,59.404 236.522,59.418 C236.014,59.432 235.57,59.438 235.188,59.438 L235.146,58.782 C235.598,58.742 235.954,58.684 236.224,58.608 C236.49,58.534 236.696,58.406 236.85,58.23 C236.998,58.052 237.098,57.81 237.146,57.502 C237.192,57.196 237.216,56.782 237.216,56.262 L237.216,50.87 C237.216,50.488 237.196,50.186 237.156,49.968 C237.116,49.75 237.03,49.578 236.9,49.454 C236.77,49.33 236.578,49.236 236.326,49.166 C236.072,49.098 235.74,49.03 235.33,48.96 L235.27,48.364 C235.694,48.282 236.12,48.198 236.554,48.108 C236.984,48.02 237.386,47.926 237.762,47.832 C238.138,47.734 238.472,47.646 238.77,47.564 C239.062,47.482 239.286,47.406 239.434,47.34 L239.642,47.504 C239.6,47.844 239.566,48.208 239.538,48.59 C239.51,48.972 239.49,49.352 239.478,49.728 C239.462,50.104 239.452,50.46 239.446,50.794 C239.438,51.128 239.434,51.42 239.434,51.666 L239.434,57.102 C239.434,57.43 239.456,57.692 239.496,57.892 C239.536,58.092 239.628,58.244 239.774,58.352 C239.92,58.46 240.134,58.536 240.418,58.578 C240.708,58.618 241.102,58.652 241.61,58.68 L241.564,59.438 z M236.788,42.418 C236.788,41.964 236.924,41.602 237.198,41.32 C237.472,41.038 237.834,40.898 238.284,40.898 C238.764,40.898 239.144,41.038 239.424,41.32 C239.702,41.602 239.842,41.964 239.842,42.418 C239.842,42.868 239.702,43.234 239.424,43.514 C239.142,43.796 238.764,43.934 238.284,43.934 C237.834,43.934 237.472,43.796 237.198,43.514 C236.924,43.234 236.788,42.866 236.788,42.418 z" fill="#FFFFFF"/>
      <path d="M256.944,56.834 C256.71,57.312 256.408,57.736 256.042,58.106 C255.67,58.476 255.264,58.79 254.82,59.05 C254.376,59.31 253.91,59.508 253.418,59.646 C252.926,59.784 252.434,59.85 251.942,59.85 C251.122,59.85 250.368,59.69 249.684,59.37 C249,59.05 248.414,58.62 247.922,58.088 C247.43,57.552 247.046,56.936 246.774,56.23 C246.5,55.526 246.364,54.784 246.364,54.006 C246.364,53.062 246.552,52.188 246.926,51.38 C247.3,50.572 247.808,49.868 248.446,49.266 C249.078,48.664 249.816,48.194 250.65,47.852 C251.484,47.51 252.364,47.34 253.294,47.34 C253.748,47.34 254.2,47.38 254.658,47.462 C255.116,47.544 255.564,47.702 256.002,47.934 C256.194,48.03 256.326,48.156 256.404,48.312 C256.478,48.47 256.516,48.624 256.516,48.772 C256.516,49.018 256.42,49.276 256.228,49.542 C256.036,49.81 255.722,50.052 255.284,50.27 L255.18,50.27 C254.676,49.75 254.19,49.368 253.724,49.122 C253.258,48.876 252.718,48.752 252.104,48.752 C251.53,48.752 251.026,48.87 250.596,49.1 C250.166,49.334 249.806,49.642 249.518,50.024 C249.232,50.406 249.014,50.848 248.862,51.346 C248.714,51.846 248.638,52.362 248.638,52.894 C248.638,53.564 248.738,54.206 248.936,54.822 C249.132,55.438 249.416,55.978 249.786,56.444 C250.156,56.91 250.608,57.28 251.152,57.562 C251.692,57.844 252.308,57.982 253.008,57.982 C253.664,57.982 254.294,57.846 254.894,57.572 C255.494,57.298 255.98,56.874 256.35,56.3 L256.944,56.834 z" fill="#FFFFFF"/>
      <path d="M268.71,52.814 C268.724,52.718 268.732,52.602 268.732,52.464 C268.732,52.326 268.732,52.172 268.732,51.994 L268.732,50.968 C268.732,50.27 268.564,49.694 268.228,49.236 C267.892,48.778 267.356,48.548 266.618,48.548 C266.222,48.548 265.884,48.62 265.602,48.762 C265.32,48.906 265.09,49.094 264.906,49.326 C264.718,49.558 264.582,49.826 264.496,50.126 C264.406,50.426 264.362,50.74 264.362,51.068 C264.144,51.248 263.842,51.336 263.46,51.336 C263.146,51.336 262.848,51.264 262.568,51.122 C262.286,50.978 262.148,50.762 262.148,50.476 C262.148,50.258 262.232,50.03 262.404,49.8 C262.576,49.566 262.8,49.338 263.08,49.112 C263.362,48.886 263.674,48.67 264.014,48.466 C264.358,48.26 264.706,48.084 265.06,47.932 C265.976,47.536 266.878,47.338 267.768,47.338 C268.206,47.338 268.616,47.396 268.998,47.512 C269.38,47.628 269.716,47.812 270.002,48.064 C270.292,48.318 270.516,48.642 270.68,49.038 C270.844,49.434 270.926,49.908 270.926,50.454 C270.926,51.274 270.912,52.22 270.884,53.294 C270.856,54.368 270.842,55.56 270.842,56.872 C270.842,57.406 270.946,57.822 271.148,58.122 C271.356,58.422 271.64,58.576 272.012,58.576 C272.34,58.576 272.696,58.458 273.078,58.226 L273.446,58.778 C273.134,59.078 272.746,59.324 272.29,59.516 C271.83,59.708 271.368,59.806 270.904,59.806 C270.428,59.806 269.986,59.676 269.584,59.416 C269.178,59.156 268.908,58.712 268.772,58.084 C268.636,58.178 268.424,58.322 268.138,58.514 C267.852,58.706 267.522,58.9 267.154,59.098 C266.784,59.298 266.388,59.472 265.964,59.622 C265.54,59.772 265.136,59.846 264.754,59.846 C264.304,59.846 263.894,59.764 263.524,59.6 C263.156,59.436 262.836,59.216 262.57,58.934 C262.304,58.654 262.098,58.334 261.956,57.972 C261.812,57.608 261.74,57.222 261.74,56.812 C261.74,56.116 261.942,55.52 262.344,55.02 C262.748,54.52 263.278,54.134 263.934,53.86 C264.414,53.668 265.052,53.476 265.852,53.276 C266.65,53.078 267.604,52.924 268.71,52.814 z M268.67,57.102 C268.67,56.528 268.678,55.966 268.69,55.418 C268.706,54.872 268.712,54.312 268.712,53.738 C268.342,53.778 267.97,53.83 267.592,53.89 C267.216,53.952 266.852,54.03 266.496,54.126 C266.14,54.222 265.806,54.344 265.49,54.496 C265.178,54.646 264.91,54.824 264.692,55.03 C264.35,55.33 264.178,55.72 264.178,56.2 C264.178,56.774 264.326,57.258 264.62,57.656 C264.914,58.054 265.37,58.252 265.984,58.252 C266.422,58.252 266.88,58.148 267.36,57.944 C267.84,57.74 268.274,57.456 268.67,57.102 z" fill="#FFFFFF"/>
      <path d="M281.484,43.442 C281.456,43.77 281.432,44.15 281.412,44.58 C281.392,45.012 281.374,45.442 281.362,45.872 C281.348,46.302 281.338,46.706 281.33,47.08 C281.322,47.456 281.32,47.76 281.32,47.994 L284.826,47.932 L284.99,48.076 L284.93,49.12 L281.32,49.12 L281.32,55.724 C281.32,56.258 281.372,56.694 281.474,57.036 C281.576,57.378 281.72,57.652 281.904,57.856 C282.088,58.06 282.304,58.202 282.55,58.276 C282.796,58.352 283.064,58.39 283.348,58.39 C283.648,58.39 283.966,58.356 284.294,58.286 C284.622,58.22 284.942,58.15 285.256,58.082 L285.398,58.82 C284.866,59.078 284.292,59.3 283.676,59.486 C283.062,59.67 282.468,59.762 281.892,59.762 C281.496,59.762 281.128,59.712 280.796,59.61 C280.46,59.506 280.164,59.332 279.902,59.086 C279.644,58.84 279.442,58.516 279.296,58.112 C279.156,57.71 279.082,57.214 279.082,56.626 L279.082,56.072 C279.082,55.826 279.086,55.432 279.094,54.884 C279.1,54.338 279.104,53.604 279.104,52.688 L279.104,49.12 L277.258,49.12 L277.114,48.978 L277.196,48.178 L279.104,48.034 L279.104,46.332 C279.104,45.99 279.1,45.642 279.094,45.288 C279.086,44.932 279.082,44.588 279.082,44.26 C279.29,44.178 279.5,44.094 279.718,44.004 C279.936,43.916 280.148,43.83 280.354,43.748 C280.558,43.666 280.738,43.588 280.896,43.512 C281.052,43.438 281.174,43.374 281.256,43.318 L281.484,43.442 z" fill="#FFFFFF"/>
      <path d="M296.288,59.438 C295.85,59.438 295.324,59.432 294.71,59.418 C294.092,59.404 293.46,59.398 292.804,59.398 C292.268,59.398 291.75,59.404 291.246,59.418 C290.738,59.432 290.292,59.438 289.91,59.438 L289.87,58.782 C290.32,58.742 290.678,58.684 290.944,58.608 C291.214,58.534 291.42,58.406 291.572,58.23 C291.72,58.052 291.818,57.81 291.868,57.502 C291.914,57.196 291.938,56.782 291.938,56.262 L291.938,50.87 C291.938,50.488 291.918,50.186 291.876,49.968 C291.836,49.75 291.75,49.578 291.622,49.454 C291.49,49.33 291.298,49.236 291.048,49.166 C290.794,49.098 290.462,49.03 290.052,48.96 L289.99,48.364 C290.416,48.282 290.842,48.198 291.272,48.108 C291.706,48.02 292.108,47.926 292.482,47.832 C292.858,47.734 293.192,47.646 293.486,47.564 C293.782,47.482 294.002,47.406 294.154,47.34 L294.362,47.504 C294.32,47.844 294.284,48.208 294.256,48.59 C294.228,48.972 294.21,49.352 294.198,49.728 C294.182,50.104 294.17,50.46 294.166,50.794 C294.158,51.128 294.154,51.42 294.154,51.666 L294.154,57.102 C294.154,57.43 294.174,57.692 294.216,57.892 C294.256,58.092 294.348,58.244 294.494,58.352 C294.634,58.462 294.854,58.536 295.138,58.578 C295.428,58.618 295.822,58.652 296.33,58.68 L296.288,59.438 z M291.51,42.418 C291.51,41.964 291.646,41.602 291.92,41.32 C292.194,41.038 292.556,40.898 293.006,40.898 C293.482,40.898 293.866,41.038 294.142,41.32 C294.424,41.602 294.564,41.964 294.564,42.418 C294.564,42.868 294.424,43.234 294.142,43.514 C293.864,43.796 293.482,43.934 293.006,43.934 C292.556,43.934 292.194,43.796 291.92,43.514 C291.646,43.234 291.51,42.866 291.51,42.418 z" fill="#FFFFFF"/>
      <path d="M301.166,53.716 C301.166,52.84 301.326,52.014 301.646,51.234 C301.966,50.456 302.404,49.778 302.958,49.204 C303.512,48.63 304.166,48.174 304.918,47.84 C305.668,47.506 306.476,47.338 307.336,47.338 C308.266,47.338 309.114,47.498 309.878,47.818 C310.644,48.14 311.296,48.578 311.836,49.13 C312.378,49.684 312.794,50.334 313.09,51.08 C313.382,51.826 313.532,52.622 313.532,53.468 C313.532,54.356 313.368,55.188 313.048,55.96 C312.728,56.732 312.29,57.406 311.736,57.98 C311.182,58.554 310.526,59.01 309.768,59.344 C309.01,59.678 308.202,59.846 307.338,59.846 C306.408,59.846 305.564,59.686 304.806,59.366 C304.044,59.046 303.396,58.606 302.856,58.054 C302.316,57.5 301.898,56.85 301.606,56.104 C301.31,55.362 301.166,54.564 301.166,53.716 z M307.604,58.844 C308.206,58.844 308.722,58.7 309.154,58.414 C309.584,58.124 309.94,57.758 310.22,57.304 C310.498,56.854 310.704,56.346 310.834,55.788 C310.962,55.226 311.03,54.666 311.03,54.104 C311.03,53.448 310.96,52.78 310.816,52.096 C310.672,51.412 310.44,50.794 310.128,50.238 C309.812,49.686 309.406,49.23 308.91,48.874 C308.41,48.518 307.804,48.34 307.094,48.34 C306.48,48.34 305.958,48.48 305.524,48.76 C305.094,49.042 304.742,49.406 304.47,49.858 C304.198,50.31 303.994,50.816 303.864,51.376 C303.734,51.936 303.668,52.498 303.668,53.058 C303.668,53.686 303.742,54.344 303.894,55.026 C304.042,55.71 304.276,56.332 304.594,56.892 C304.906,57.454 305.312,57.92 305.812,58.286 C306.31,58.66 306.908,58.844 307.604,58.844 z" fill="#FFFFFF"/>
      <path d="M325.096,59.438 C324.658,59.438 324.166,59.432 323.62,59.418 C323.074,59.404 322.472,59.398 321.816,59.398 C321.28,59.398 320.754,59.404 320.226,59.418 C319.698,59.432 319.246,59.438 318.862,59.438 L318.8,58.782 C319.264,58.742 319.636,58.68 319.918,58.598 C320.2,58.516 320.418,58.39 320.574,58.22 C320.73,58.05 320.836,57.81 320.882,57.502 C320.928,57.196 320.952,56.782 320.952,56.262 L320.952,50.948 C320.952,50.566 320.932,50.264 320.894,50.046 C320.852,49.828 320.766,49.652 320.636,49.522 C320.506,49.392 320.316,49.292 320.062,49.226 C319.808,49.156 319.476,49.09 319.066,49.018 L319.008,48.444 C319.348,48.378 319.716,48.296 320.102,48.198 C320.492,48.104 320.872,48.004 321.242,47.902 C321.61,47.8 321.956,47.7 322.278,47.606 C322.6,47.512 322.864,47.422 323.068,47.34 L323.314,47.504 C323.274,47.79 323.24,48.074 323.212,48.354 C323.184,48.636 323.17,48.918 323.17,49.206 C323.908,48.618 324.694,48.162 325.518,47.832 C326.346,47.504 327.136,47.34 327.89,47.34 C328.382,47.34 328.844,47.418 329.272,47.574 C329.702,47.732 330.076,47.98 330.39,48.324 C330.706,48.664 330.956,49.1 331.14,49.624 C331.324,50.152 331.418,50.79 331.418,51.542 L331.418,57.1 C331.418,57.428 331.438,57.69 331.48,57.89 C331.52,58.09 331.606,58.242 331.734,58.35 C331.862,58.458 332.058,58.534 332.32,58.576 C332.578,58.616 332.926,58.65 333.366,58.678 L333.324,59.436 C332.886,59.436 332.406,59.43 331.878,59.416 C331.35,59.402 330.76,59.396 330.104,59.396 C329.568,59.396 329.062,59.402 328.576,59.416 C328.088,59.43 327.654,59.436 327.272,59.436 L327.214,58.78 C327.636,58.74 327.976,58.686 328.238,58.616 C328.496,58.55 328.696,58.436 328.832,58.278 C328.968,58.122 329.058,57.898 329.102,57.602 C329.142,57.308 329.16,56.9 329.16,56.382 L329.16,52.054 C329.16,50.96 328.918,50.172 328.434,49.686 C327.95,49.2 327.336,48.958 326.598,48.958 C326.078,48.958 325.524,49.066 324.938,49.276 C324.348,49.486 323.762,49.784 323.172,50.166 L323.172,57.1 C323.172,57.428 323.192,57.69 323.222,57.89 C323.258,58.09 323.344,58.242 323.48,58.35 C323.616,58.458 323.82,58.534 324.086,58.576 C324.352,58.616 324.712,58.65 325.164,58.678 L325.096,59.438 z" fill="#FFFFFF"/>
      <path d="M345.866,51.234 C345.826,50.812 345.718,50.418 345.55,50.056 C345.378,49.694 345.152,49.382 344.87,49.122 C344.592,48.862 344.268,48.662 343.898,48.516 C343.53,48.374 343.132,48.302 342.71,48.302 C342.448,48.302 342.198,48.344 341.96,48.426 C341.722,48.508 341.506,48.626 341.324,48.774 C341.14,48.926 340.992,49.114 340.882,49.338 C340.772,49.564 340.718,49.82 340.718,50.108 C340.718,50.45 340.804,50.746 340.976,51 C341.148,51.254 341.37,51.478 341.652,51.676 C341.934,51.876 342.254,52.05 342.616,52.2 C342.978,52.35 343.35,52.5 343.734,52.652 C344.156,52.83 344.578,53.018 344.996,53.216 C345.414,53.414 345.786,53.646 346.114,53.914 C346.442,54.18 346.704,54.498 346.904,54.868 C347.104,55.238 347.2,55.674 347.2,56.18 C347.2,56.822 347.064,57.374 346.79,57.83 C346.516,58.288 346.162,58.668 345.724,58.968 C345.286,59.268 344.79,59.492 344.24,59.634 C343.686,59.778 343.126,59.848 342.568,59.848 C342.212,59.848 341.854,59.82 341.49,59.766 C341.126,59.712 340.79,59.65 340.474,59.582 C340.188,59.514 339.912,59.45 339.646,59.386 C339.376,59.326 339.088,59.28 338.774,59.254 C338.758,59.022 338.734,58.726 338.7,58.372 C338.666,58.018 338.63,57.656 338.586,57.286 C338.546,56.916 338.5,56.566 338.454,56.23 C338.408,55.896 338.356,55.632 338.302,55.44 L338.998,55.254 C339.19,55.718 339.4,56.172 339.634,56.61 C339.864,57.048 340.142,57.434 340.466,57.768 C340.786,58.102 341.154,58.372 341.564,58.578 C341.974,58.782 342.458,58.884 343.018,58.884 C343.554,58.884 344.026,58.738 344.436,58.442 C344.846,58.15 345.05,57.702 345.05,57.1 C345.05,56.756 344.972,56.454 344.816,56.186 C344.656,55.92 344.444,55.684 344.18,55.478 C343.916,55.272 343.614,55.092 343.278,54.936 C342.942,54.78 342.59,54.624 342.224,54.476 C341.798,54.296 341.376,54.108 340.962,53.912 C340.544,53.714 340.172,53.48 339.844,53.214 C339.516,52.946 339.246,52.628 339.044,52.26 C338.836,51.888 338.736,51.446 338.736,50.926 C338.736,50.298 338.868,49.756 339.134,49.306 C339.404,48.852 339.744,48.482 340.162,48.186 C340.58,47.894 341.052,47.676 341.588,47.54 C342.12,47.404 342.654,47.336 343.186,47.336 C343.732,47.336 344.276,47.39 344.818,47.5 C345.358,47.61 345.966,47.676 346.654,47.704 C346.612,48.142 346.584,48.556 346.572,48.946 C346.556,49.334 346.548,49.754 346.548,50.208 L346.548,51.212 L345.866,51.234 z" fill="#FFFFFF"/>
    </g>
  </g>
  <defs/>
</svg>
