<?xml version="1.0" encoding="UTF-8"?>
<!DOCTYPE svg PUBLIC "-//W3C//DTD SVG 1.1//EN" "http://www.w3.org/Graphics/SVG/1.1/DTD/svg11.dtd">
<svg version="1.1" xmlns="http://www.w3.org/2000/svg" xmlns:xlink="http://www.w3.org/1999/xlink" x="0px" y="0px" width="203.31" height="68.2" viewBox="0, 0, 203.31, 68.2">
  <g id="color_logo_4">
    <g>
      <path d="M80.841,68.2 C78.123,68.2 76.745,67.482 76.745,66.066 C76.745,65.321 77.243,64.744 77.66,64.39 L77.806,64.266 L77.705,64.101 C77.568,63.875 77.496,63.585 77.496,63.238 C77.496,62.643 77.799,62.058 78.423,61.451 L78.645,61.239 L78.375,61.093 C77.504,60.622 77.042,59.896 77.042,58.987 C77.042,57.293 78.573,56.2 80.94,56.2 C81.787,56.2 82.545,56.347 83.194,56.636 L83.246,56.659 L85.907,56.473 L85.843,57.757 L84.542,57.757 L84.652,58.058 C84.766,58.369 84.822,58.685 84.822,58.99 C84.822,60.621 83.334,61.637 80.939,61.637 C80.508,61.637 80.082,61.599 79.671,61.526 L79.496,61.497 L79.427,61.659 C79.376,61.776 79.352,61.904 79.352,62.048 C79.352,62.698 80.012,62.698 80.259,62.698 L83.486,62.698 C85.161,62.698 86.049,63.59 86.049,65.274 C86.048,67.023 83.956,68.2 80.841,68.2 z M78.62,64.989 C78.504,65.242 78.442,65.506 78.442,65.766 C78.442,66.911 79.785,67.057 80.956,67.057 C82.783,67.057 83.709,66.653 83.709,65.85 C83.709,65.295 83.358,64.975 82.745,64.975 L79.845,64.975 C79.535,64.975 79.198,64.936 78.869,64.866 L78.694,64.827 L78.62,64.989 z M80.901,57.611 C80.128,57.611 79.737,58.116 79.737,59.114 C79.737,60.079 80.186,60.633 80.97,60.633 C81.727,60.633 82.16,60.079 82.16,59.114 C82.161,57.806 81.37,57.611 80.901,57.611 z" fill="#FFFFFF"/>
      <path d="M93.222,63.709 C93.245,62.934 93.314,60.349 93.314,57.991 C93.314,56.142 93.211,53.105 93.181,52.228 C93.645,52.25 94.133,52.253 94.588,52.253 C95.319,52.253 95.97,52.234 96.307,52.226 C96.261,53.122 96.105,56.266 96.105,58.049 L96.105,59.234 C96.104,60.962 96.103,61.415 96.157,63.709 L93.222,63.709 z" fill="#FFFFFF"/>
      <path d="M106.576,63.964 C105.016,63.964 104.157,62.954 104.157,61.119 C104.157,60.652 104.162,60.029 104.171,59.38 C104.185,58.266 104.196,57.119 104.179,56.453 L107.06,56.453 C107.053,56.716 107.045,57.031 107.038,57.369 C107.015,58.231 106.993,59.256 106.993,60.065 C106.993,60.845 106.993,62.292 108.253,62.292 C109.446,62.292 109.446,60.787 109.446,60.065 C109.446,59.029 109.39,57.572 109.341,56.452 L112.313,56.452 C112.29,57.225 112.222,59.81 112.222,62.168 C112.222,62.642 112.266,63.09 112.345,63.707 L109.523,63.707 L109.413,62.586 L108.98,62.525 C108.605,63.494 107.818,63.964 106.576,63.964 z" fill="#FFFFFF"/>
      <path d="M123.941,63.964 C121.251,63.964 119.887,62.664 119.887,60.094 C119.887,57.617 121.344,56.197 123.886,56.197 C125.938,56.197 127.117,57.064 127.117,58.573 C127.117,60.047 125.683,60.707 124.26,60.707 C123.868,60.707 123.485,60.657 123.118,60.558 L122.836,60.484 L122.836,60.778 C122.836,61.865 123.365,62.465 124.325,62.465 C125.112,62.465 125.932,62.25 126.828,61.806 L127.314,63.232 C126.567,63.699 125.355,63.964 123.941,63.964 z M124.253,57.569 C123.383,57.569 122.849,58.351 122.791,59.715 L122.782,59.903 L122.965,59.943 C123.099,59.973 123.311,60.011 123.559,60.011 L123.559,60.011 C123.971,60.011 124.332,59.908 124.59,59.714 C124.94,59.456 125.117,59.052 125.117,58.517 C125.116,57.693 124.575,57.569 124.253,57.569 z" fill="#FFFFFF"/>
    </g>
    <g>
      <path d="M0.001,9.933 L0.001,11.502 L9.534,11.502 C16.688,11.631 24.228,13.132 24.228,20.799 C24.228,25.296 21.443,28.211 19.13,29.324 C20.458,31.936 22.257,34.335 24.827,34.335 C26.027,34.335 26.541,34.165 26.541,34.165 L25.641,41.919 C25.641,41.919 24.57,42.09 22.343,42.09 C16.346,42.09 12.877,36.819 11.248,31.851 C9.92,32.065 9.021,32.108 9.021,32.108 C9.065,35.277 9.108,37.591 9.108,41.32 L0.001,41.32 L0.001,43.33 L28.252,43.33 L28.252,9.933 L0.001,9.933 z" fill="#FFFFFF"/>
      <path d="M14.547,21.355 C14.547,17.372 10.991,17.629 9.021,17.716 C8.936,20.585 9.021,24.1 9.021,26.369 C10.947,26.325 14.547,25.898 14.547,21.355 z" fill="#FFFFFF"/>
    </g>
    <g>
      <path d="M30.397,38.73 L30.397,45.604 L37.192,45.604 C33.914,44.56 31.475,42.387 30.397,38.73 z" fill="#FFFFFF"/>
      <path d="M45.538,29.281 C45.538,27.739 44.854,27.096 43.611,27.096 C41.041,27.096 40.012,29.882 39.884,32.924 C41.768,33.351 45.538,33.351 45.538,29.281 z" fill="#FFFFFF"/>
      <path d="M30.397,15.786 L30.397,29.473 C31.99,24.137 36.541,21.613 42.496,21.613 C49.179,21.613 52.906,24.569 52.906,29.45 C52.906,35.533 45.582,37.588 40.011,36.093 C40.011,38.234 40.74,40.503 43.825,40.503 C46.91,40.503 49.735,39.305 51.75,38.235 L53.635,43.762 C52.55,44.547 51.084,45.162 49.364,45.605 L58.65,45.605 L58.65,15.786 L30.397,15.786 z" fill="#FFFFFF"/>
    </g>
    <path d="M1.389,25.894 C1.389,34.475 0.306,39.029 0.001,40.235 L0.001,11.179 L0.398,11.179 C0.656,15.235 1.389,22.868 1.389,25.894 z" fill="#FFFFFF"/>
    <path d="M145.453,28.043 C145.453,34.118 144.257,38.939 143.917,39.953 L143.917,15.49 L144.362,15.49 C144.506,17.196 145.453,20.474 145.453,28.043 z" fill="#FFFFFF"/>
    <g>
      <g>
        <path d="M82.703,27.817 C80.817,29.208 77.176,30.108 77.176,33.121 C77.176,34.558 77.85,35.098 78.839,35.098 C81.088,35.097 82.344,31.548 82.703,27.817 z" fill="#FFFFFF"/>
        <path d="M66.436,34.513 C66.436,25.029 82.211,27.231 82.211,23.904 C82.211,22.332 80.907,21.432 78.84,21.432 C74.526,21.432 68.863,25.254 68.863,25.254 L66.931,18.918 C66.931,18.918 71.964,14.917 80.145,14.917 C86.011,14.917 89.485,16.682 90.988,19.764 L90.988,8.806 L61.345,8.806 L61.345,40.086 L69.913,40.086 C67.812,39.107 66.436,37.246 66.436,34.513 z" fill="#FFFFFF"/>
        <path d="M78.549,40.085 L83.064,40.085 L82.975,35.232 C82.202,36.961 81.154,38.986 78.549,40.085 z" fill="#FFFFFF"/>
      </g>
      <path d="M89.894,29.373 C89.894,34.801 90.322,39.097 90.983,40.303 L90.983,19.429 C90.982,19.429 89.894,22.619 89.894,29.373 z" fill="#FFFFFF"/>
    </g>
    <g>
      <path d="M111.209,32.734 C111.209,29.532 110.099,26.467 106.765,26.467 C103.789,26.467 102.677,28.954 102.677,32.734 C102.677,36.553 103.787,38.998 106.765,38.998 C110.099,38.996 111.209,35.977 111.209,32.734 z" fill="#FFFFFF"/>
      <g>
        <path d="M120.641,25.902 C120.658,37.664 122.015,42.315 122.442,43.798 L122.442,8.007 L121.882,8.007 C121.54,10.271 120.625,12.856 120.641,25.902 z" fill="#FFFFFF"/>
        <path d="M107.907,44.73 L112.118,44.73 C112.118,43.929 111.984,40.775 111.984,40.064 C111.439,41.731 110.124,43.668 107.907,44.73 z" fill="#FFFFFF"/>
        <path d="M104.073,19.846 C107.808,19.846 110.56,21.934 111.718,24.779 C111.604,19.017 111.196,10.341 111.081,8.006 L93.29,8.006 L93.29,30.434 C94.064,23.906 98.167,19.846 104.073,19.846 z" fill="#FFFFFF"/>
        <path d="M93.289,35 L93.289,44.73 L99.944,44.73 C96.316,43.266 93.867,39.842 93.289,35 z" fill="#FFFFFF"/>
      </g>
    </g>
    <path d="M127.554,41.318 C127.554,41.318 127.854,34.636 127.854,29.497 C127.854,24.741 127.426,18.101 127.426,18.101 C132.223,18.359 138.136,18.101 138.136,18.101 C138.136,18.101 137.62,24.826 137.62,29.71 C137.62,34.251 137.578,32.365 137.79,41.318 L127.554,41.318 L127.554,41.318 z" fill="#FFFFFF"/>
    <g>
      <path d="M156.598,22.477 C153.814,22.477 153.299,25.434 153.299,28.516 C153.299,32.074 153.472,37.257 153.601,40.083 L159.896,40.083 C159.938,37.386 160.109,32.199 160.109,28.516 C160.112,24.878 159.339,22.477 156.598,22.477 z" fill="#FFFFFF"/>
      <path d="M143.919,10.271 L143.919,16.867 L153.556,16.867 C153.514,18.282 153.473,19.652 153.429,20.852 C154.541,18.111 157.243,16.097 161.739,16.097 C167.395,16.097 170.006,19.524 170.006,24.622 C170.006,31.82 170.221,37.345 170.309,40.086 L172.172,40.086 L172.172,10.271 L143.919,10.271 z" fill="#FFFFFF"/>
    </g>
    <g>
      <path d="M183.971,40.82 C182.942,40.82 181.873,40.693 180.886,40.477 C180.585,41.119 180.415,41.804 180.415,42.532 C180.415,44.8 182.641,45.743 187.311,45.743 C191.81,45.743 194.938,44.887 194.938,42.788 C194.938,41.373 194.082,40.817 192.712,40.817 L183.971,40.82 L183.971,40.82 z" fill="#FFFFFF"/>
      <path d="M190.268,22.486 C190.268,20.172 189.411,18.632 187.143,18.632 C184.999,18.632 184.314,20.129 184.314,22.486 C184.314,24.798 185.216,26.384 187.356,26.384 C189.583,26.384 190.268,24.542 190.268,22.486 z" fill="#FFFFFF"/>
      <path d="M202.766,37.37 L202.766,17.532 L202.694,19.06 L199.094,19.06 C199.438,20 199.652,21.031 199.652,22.1 C199.652,27.326 195.025,30.755 187.273,30.755 C185.858,30.755 184.529,30.627 183.333,30.412 C183.203,30.711 183.159,31.012 183.159,31.31 C183.159,32.296 183.801,32.595 185.217,32.595 L194.939,32.595 C199.02,32.595 201.675,34.285 202.766,37.37 z" fill="#FFFFFF"/>
      <path d="M173.946,43.434 C173.946,40.95 175.533,39.063 176.947,37.864 C176.474,37.094 176.218,36.109 176.218,34.909 C176.218,32.509 177.674,30.539 179.215,29.041 C176.433,27.542 174.845,25.144 174.845,22.1 C174.845,16.745 179.601,13.019 187.271,13.019 L173.051,13.019 L173.051,50.505 L185.198,50.505 C177.375,50.173 173.946,47.587 173.946,43.434 z" fill="#FFFFFF"/>
      <path d="M202.766,13.803 L202.766,13.021 L187.27,13.021 C190.054,13.021 192.411,13.536 194.338,14.389 L202.766,13.803 z" fill="#FFFFFF"/>
      <path d="M188.554,50.505 L202.765,50.505 L202.765,43.776 C201.105,47.664 195.844,50.188 188.554,50.505 z" fill="#FFFFFF"/>
    </g>
    <path d="M135.118,15.85 C134.609,15.85 134.094,15.809 133.581,15.723 C131.101,15.318 128.929,13.971 127.465,11.932 C126.263,10.262 125.786,8.227 126.118,6.197 C126.451,4.169 127.553,2.39 129.221,1.19 C130.595,0.205 132.27,-0.19 133.938,0.086 C135.609,0.359 137.072,1.264 138.059,2.638 C138.877,3.774 139.199,5.162 138.975,6.544 C138.747,7.923 137.998,9.134 136.861,9.952 C134.908,11.355 132.172,10.912 130.766,8.954 C130.195,8.158 129.967,7.187 130.124,6.22 C130.284,5.255 130.81,4.407 131.604,3.834 C132.278,3.349 133.102,3.157 133.919,3.29 C134.738,3.425 135.456,3.87 135.941,4.544 L134.525,5.563 C134.083,4.953 133.232,4.814 132.62,5.253 C132.206,5.552 131.928,5.995 131.847,6.501 C131.765,7.009 131.882,7.517 132.184,7.935 C133.026,9.109 134.669,9.379 135.842,8.534 C136.6,7.989 137.102,7.182 137.25,6.26 C137.404,5.34 137.184,4.413 136.64,3.658 C135.926,2.663 134.865,2.004 133.657,1.807 C132.444,1.612 131.232,1.895 130.239,2.609 C128.947,3.536 128.098,4.913 127.839,6.481 C127.582,8.05 127.952,9.625 128.878,10.916 C130.073,12.577 131.843,13.675 133.86,14.006 C135.881,14.335 137.906,13.859 139.567,12.667 L140.584,14.083 C138.971,15.243 137.071,15.85 135.118,15.85 z" fill="#FFFFFF"/>
    <path d="M0.001,59.975 L70.525,59.975 L70.525,60.451 L0.001,60.451 z" fill="#FFFFFF"/>
    <path d="M132.782,59.975 L203.309,59.975 L203.309,60.451 L132.782,60.451 z" fill="#FFFFFF"/>
  </g>
  <defs/>
</svg>
